%TF.GenerationSoftware,KiCad,Pcbnew,(6.0.6)*%
%TF.CreationDate,2023-06-02T12:55:39+02:00*%
%TF.ProjectId,X68KFDUINO,5836384b-4644-4554-994e-4f2e6b696361,rev?*%
%TF.SameCoordinates,Original*%
%TF.FileFunction,Copper,L2,Bot*%
%TF.FilePolarity,Positive*%
%FSLAX46Y46*%
G04 Gerber Fmt 4.6, Leading zero omitted, Abs format (unit mm)*
G04 Created by KiCad (PCBNEW (6.0.6)) date 2023-06-02 12:55:39*
%MOMM*%
%LPD*%
G01*
G04 APERTURE LIST*
G04 Aperture macros list*
%AMRoundRect*
0 Rectangle with rounded corners*
0 $1 Rounding radius*
0 $2 $3 $4 $5 $6 $7 $8 $9 X,Y pos of 4 corners*
0 Add a 4 corners polygon primitive as box body*
4,1,4,$2,$3,$4,$5,$6,$7,$8,$9,$2,$3,0*
0 Add four circle primitives for the rounded corners*
1,1,$1+$1,$2,$3*
1,1,$1+$1,$4,$5*
1,1,$1+$1,$6,$7*
1,1,$1+$1,$8,$9*
0 Add four rect primitives between the rounded corners*
20,1,$1+$1,$2,$3,$4,$5,0*
20,1,$1+$1,$4,$5,$6,$7,0*
20,1,$1+$1,$6,$7,$8,$9,0*
20,1,$1+$1,$8,$9,$2,$3,0*%
G04 Aperture macros list end*
%TA.AperFunction,ComponentPad*%
%ADD10R,1.800000X1.800000*%
%TD*%
%TA.AperFunction,ComponentPad*%
%ADD11C,1.800000*%
%TD*%
%TA.AperFunction,ComponentPad*%
%ADD12C,1.600000*%
%TD*%
%TA.AperFunction,ComponentPad*%
%ADD13O,1.600000X1.600000*%
%TD*%
%TA.AperFunction,ComponentPad*%
%ADD14R,1.700000X1.700000*%
%TD*%
%TA.AperFunction,ComponentPad*%
%ADD15O,1.700000X1.700000*%
%TD*%
%TA.AperFunction,ComponentPad*%
%ADD16C,2.100000*%
%TD*%
%TA.AperFunction,ComponentPad*%
%ADD17C,1.750000*%
%TD*%
%TA.AperFunction,ComponentPad*%
%ADD18RoundRect,0.250000X-0.600000X0.600000X-0.600000X-0.600000X0.600000X-0.600000X0.600000X0.600000X0*%
%TD*%
%TA.AperFunction,ComponentPad*%
%ADD19C,1.700000*%
%TD*%
%TA.AperFunction,ComponentPad*%
%ADD20C,4.000000*%
%TD*%
%TA.AperFunction,ComponentPad*%
%ADD21R,1.600000X1.600000*%
%TD*%
%TA.AperFunction,ViaPad*%
%ADD22C,0.800000*%
%TD*%
%TA.AperFunction,Conductor*%
%ADD23C,0.250000*%
%TD*%
G04 APERTURE END LIST*
D10*
%TO.P,D3,1,K*%
%TO.N,GND*%
X121666000Y-81539000D03*
D11*
%TO.P,D3,2,A*%
%TO.N,Net-(D3-Pad2)*%
X121666000Y-78999000D03*
%TD*%
D12*
%TO.P,R5,1*%
%TO.N,GND*%
X128016000Y-95250000D03*
D13*
%TO.P,R5,2*%
%TO.N,BT_FD0*%
X120396000Y-95250000D03*
%TD*%
D12*
%TO.P,R1,1*%
%TO.N,Net-(D1-Pad2)*%
X131064000Y-64262000D03*
D13*
%TO.P,R1,2*%
%TO.N,LEDFD0*%
X123444000Y-64262000D03*
%TD*%
D12*
%TO.P,R3,1*%
%TO.N,Net-(D3-Pad2)*%
X116840000Y-61214000D03*
D13*
%TO.P,R3,2*%
%TO.N,LED_Err*%
X116840000Y-53594000D03*
%TD*%
D14*
%TO.P,J8,1,Pin_1*%
%TO.N,+5V*%
X189173000Y-78242000D03*
D15*
%TO.P,J8,2,Pin_2*%
%TO.N,GND*%
X189173000Y-80782000D03*
%TO.P,J8,3,Pin_3*%
X189173000Y-83322000D03*
%TO.P,J8,4,Pin_4*%
%TO.N,unconnected-(J8-Pad4)*%
X189173000Y-85862000D03*
%TD*%
D16*
%TO.P,SW2,*%
%TO.N,*%
X114688500Y-76942000D03*
X114688500Y-69932000D03*
D17*
%TO.P,SW2,1,1*%
%TO.N,+5V*%
X112198500Y-75692000D03*
%TO.P,SW2,2,2*%
%TO.N,BT_FD1*%
X112198500Y-71192000D03*
%TD*%
D14*
%TO.P,J15,1,Pin_1*%
%TO.N,+5V*%
X189173000Y-65034000D03*
D15*
%TO.P,J15,2,Pin_2*%
%TO.N,GND*%
X189173000Y-67574000D03*
%TO.P,J15,3,Pin_3*%
X189173000Y-70114000D03*
%TO.P,J15,4,Pin_4*%
%TO.N,unconnected-(J15-Pad4)*%
X189173000Y-72654000D03*
%TD*%
D12*
%TO.P,R4,1*%
%TO.N,GND*%
X112014000Y-53594000D03*
D13*
%TO.P,R4,2*%
%TO.N,BT_FD1*%
X112014000Y-61214000D03*
%TD*%
D12*
%TO.P,R2,1*%
%TO.N,Net-(D2-Pad2)*%
X131318000Y-70612000D03*
D13*
%TO.P,R2,2*%
%TO.N,LEDFD1*%
X131318000Y-78232000D03*
%TD*%
D18*
%TO.P,J1,1,Pin_1*%
%TO.N,GND*%
X177546000Y-87884000D03*
D19*
%TO.P,J1,2,Pin_2*%
%TO.N,~{DENSITY}*%
X177546000Y-90424000D03*
%TO.P,J1,3,Pin_3*%
%TO.N,unconnected-(J1-Pad3)*%
X175006000Y-87884000D03*
%TO.P,J1,4,Pin_4*%
%TO.N,unconnected-(J1-Pad4)*%
X175006000Y-90424000D03*
%TO.P,J1,5,Pin_5*%
%TO.N,GND*%
X172466000Y-87884000D03*
%TO.P,J1,6,Pin_6*%
%TO.N,unconnected-(J1-Pad6)*%
X172466000Y-90424000D03*
%TO.P,J1,7,Pin_7*%
%TO.N,GND*%
X169926000Y-87884000D03*
%TO.P,J1,8,Pin_8*%
%TO.N,~{INDEX}*%
X169926000Y-90424000D03*
%TO.P,J1,9,Pin_9*%
%TO.N,GND*%
X167386000Y-87884000D03*
%TO.P,J1,10,Pin_10*%
%TO.N,~{DS0}*%
X167386000Y-90424000D03*
%TO.P,J1,11,Pin_11*%
%TO.N,GND*%
X164846000Y-87884000D03*
%TO.P,J1,12,Pin_12*%
%TO.N,~{DS1}*%
X164846000Y-90424000D03*
%TO.P,J1,13,Pin_13*%
%TO.N,GND*%
X162306000Y-87884000D03*
%TO.P,J1,14,Pin_14*%
%TO.N,~{DS2}*%
X162306000Y-90424000D03*
%TO.P,J1,15,Pin_15*%
%TO.N,GND*%
X159766000Y-87884000D03*
%TO.P,J1,16,Pin_16*%
%TO.N,~{DS3}*%
X159766000Y-90424000D03*
%TO.P,J1,17,Pin_17*%
%TO.N,GND*%
X157226000Y-87884000D03*
%TO.P,J1,18,Pin_18*%
%TO.N,~{DIR}*%
X157226000Y-90424000D03*
%TO.P,J1,19,Pin_19*%
%TO.N,GND*%
X154686000Y-87884000D03*
%TO.P,J1,20,Pin_20*%
%TO.N,~{STEP}*%
X154686000Y-90424000D03*
%TO.P,J1,21,Pin_21*%
%TO.N,GND*%
X152146000Y-87884000D03*
%TO.P,J1,22,Pin_22*%
%TO.N,~{WDATA}*%
X152146000Y-90424000D03*
%TO.P,J1,23,Pin_23*%
%TO.N,GND*%
X149606000Y-87884000D03*
%TO.P,J1,24,Pin_24*%
%TO.N,~{WGATE}*%
X149606000Y-90424000D03*
%TO.P,J1,25,Pin_25*%
%TO.N,GND*%
X147066000Y-87884000D03*
%TO.P,J1,26,Pin_26*%
%TO.N,~{TRK0}*%
X147066000Y-90424000D03*
%TO.P,J1,27,Pin_27*%
%TO.N,GND*%
X144526000Y-87884000D03*
%TO.P,J1,28,Pin_28*%
%TO.N,~{WPROT}*%
X144526000Y-90424000D03*
%TO.P,J1,29,Pin_29*%
%TO.N,GND*%
X141986000Y-87884000D03*
%TO.P,J1,30,Pin_30*%
%TO.N,~{RDATA}*%
X141986000Y-90424000D03*
%TO.P,J1,31,Pin_31*%
%TO.N,GND*%
X139446000Y-87884000D03*
%TO.P,J1,32,Pin_32*%
%TO.N,~{SIDE}*%
X139446000Y-90424000D03*
%TO.P,J1,33,Pin_33*%
%TO.N,GND*%
X136906000Y-87884000D03*
%TO.P,J1,34,Pin_34*%
%TO.N,~{RDY}*%
X136906000Y-90424000D03*
%TD*%
D10*
%TO.P,D2,1,K*%
%TO.N,GND*%
X121920000Y-73665000D03*
D11*
%TO.P,D2,2,A*%
%TO.N,Net-(D2-Pad2)*%
X121920000Y-71125000D03*
%TD*%
D16*
%TO.P,SW1,*%
%TO.N,*%
X114434500Y-92182000D03*
X114434500Y-85172000D03*
D17*
%TO.P,SW1,1,1*%
%TO.N,+5V*%
X111944500Y-90932000D03*
%TO.P,SW1,2,2*%
%TO.N,BT_FD0*%
X111944500Y-86432000D03*
%TD*%
D20*
%TO.P,J2,0*%
%TO.N,N/C*%
X124201000Y-56259300D03*
X187701000Y-56259300D03*
D21*
%TO.P,J2,1,1*%
%TO.N,~{DENSITY}*%
X180881000Y-56559300D03*
D12*
%TO.P,J2,2,2*%
%TO.N,unconnected-(J2-Pad2)*%
X178111000Y-56559300D03*
%TO.P,J2,3,3*%
%TO.N,~{DS3}*%
X175341000Y-56559300D03*
%TO.P,J2,4,4*%
%TO.N,~{INDEX}*%
X172571000Y-56559300D03*
%TO.P,J2,5,5*%
%TO.N,~{DS0}*%
X169801000Y-56559300D03*
%TO.P,J2,6,6*%
%TO.N,~{DS1}*%
X167031000Y-56559300D03*
%TO.P,J2,7,7*%
%TO.N,~{DS2}*%
X164261000Y-56559300D03*
%TO.P,J2,8,8*%
%TO.N,~{MOTOR}*%
X161491000Y-56559300D03*
%TO.P,J2,9,9*%
%TO.N,~{DIR}*%
X158721000Y-56559300D03*
%TO.P,J2,10,10*%
%TO.N,~{STEP}*%
X155951000Y-56559300D03*
%TO.P,J2,11,11*%
%TO.N,~{WDATA}*%
X153181000Y-56559300D03*
%TO.P,J2,12,12*%
%TO.N,~{WGATE}*%
X150411000Y-56559300D03*
%TO.P,J2,13,13*%
%TO.N,~{TRK0}*%
X147641000Y-56559300D03*
%TO.P,J2,14,14*%
%TO.N,~{WPROT}*%
X144871000Y-56559300D03*
%TO.P,J2,15,15*%
%TO.N,~{RDATA}*%
X142101000Y-56559300D03*
%TO.P,J2,16,16*%
%TO.N,~{SIDE}*%
X139331000Y-56559300D03*
%TO.P,J2,17,17*%
%TO.N,~{RDY}*%
X136561000Y-56559300D03*
%TO.P,J2,18,18*%
%TO.N,unconnected-(J2-Pad18)*%
X133791000Y-56559300D03*
%TO.P,J2,19,19*%
%TO.N,unconnected-(J2-Pad19)*%
X131021000Y-56559300D03*
%TO.P,J2,20,20*%
%TO.N,~{OPT0}*%
X179496000Y-53719300D03*
%TO.P,J2,21,21*%
%TO.N,~{OPT1}*%
X176726000Y-53719300D03*
%TO.P,J2,22,22*%
%TO.N,~{OPT2}*%
X173956000Y-53719300D03*
%TO.P,J2,23,23*%
%TO.N,~{OPT3}*%
X171186000Y-53719300D03*
%TO.P,J2,24,24*%
%TO.N,~{EJECT}*%
X168416000Y-53719300D03*
%TO.P,J2,25,25*%
%TO.N,~{EjectMSK}*%
X165646000Y-53719300D03*
%TO.P,J2,26,26*%
%TO.N,LED*%
X162876000Y-53719300D03*
%TO.P,J2,27,27*%
%TO.N,~{INSERTED}*%
X160106000Y-53719300D03*
%TO.P,J2,28,28*%
%TO.N,~{ERROR}*%
X157336000Y-53719300D03*
%TO.P,J2,29,29*%
%TO.N,~{FDDINT}*%
X154566000Y-53719300D03*
%TO.P,J2,30,30*%
%TO.N,GND*%
X151796000Y-53719300D03*
%TO.P,J2,31,31*%
X149026000Y-53719300D03*
%TO.P,J2,32,32*%
X146256000Y-53719300D03*
%TO.P,J2,33,33*%
X143486000Y-53719300D03*
%TO.P,J2,34,34*%
X140716000Y-53719300D03*
%TO.P,J2,35,35*%
X137946000Y-53719300D03*
%TO.P,J2,36,36*%
X135176000Y-53719300D03*
%TO.P,J2,37,37*%
%TO.N,unconnected-(J2-Pad37)*%
X132406000Y-53719300D03*
%TD*%
D10*
%TO.P,D1,1,K*%
%TO.N,GND*%
X121920000Y-89921000D03*
D11*
%TO.P,D1,2,A*%
%TO.N,Net-(D1-Pad2)*%
X121920000Y-87381000D03*
%TD*%
D21*
%TO.P,A1,1,D1/TX*%
%TO.N,unconnected-(A1-Pad1)*%
X138938000Y-82286000D03*
D13*
%TO.P,A1,2,D0/RX*%
%TO.N,unconnected-(A1-Pad2)*%
X141478000Y-82286000D03*
%TO.P,A1,3,~{RESET}*%
%TO.N,unconnected-(A1-Pad3)*%
X144018000Y-82286000D03*
%TO.P,A1,4,GND*%
%TO.N,GND*%
X146558000Y-82286000D03*
%TO.P,A1,5,D2*%
%TO.N,~{OPT0}*%
X149098000Y-82286000D03*
%TO.P,A1,6,D3*%
%TO.N,~{OPT1}*%
X151638000Y-82286000D03*
%TO.P,A1,7,D4*%
%TO.N,~{OPT2}*%
X154178000Y-82286000D03*
%TO.P,A1,8,D5*%
%TO.N,~{OPT3}*%
X156718000Y-82286000D03*
%TO.P,A1,9,D6*%
%TO.N,~{EJECT}*%
X159258000Y-82286000D03*
%TO.P,A1,10,D7*%
%TO.N,~{INSERTED}*%
X161798000Y-82286000D03*
%TO.P,A1,11,D8*%
%TO.N,~{FDDINT}*%
X164338000Y-82286000D03*
%TO.P,A1,12,D9*%
%TO.N,BT_FD0*%
X166878000Y-82286000D03*
%TO.P,A1,13,D10*%
%TO.N,BT_FD1*%
X169418000Y-82286000D03*
%TO.P,A1,14,D11*%
%TO.N,LED_Err*%
X171958000Y-82286000D03*
%TO.P,A1,15,D12*%
%TO.N,LEDFD0*%
X174498000Y-82286000D03*
%TO.P,A1,16,D13*%
%TO.N,unconnected-(A1-Pad16)*%
X174498000Y-67046000D03*
%TO.P,A1,17,3V3*%
%TO.N,unconnected-(A1-Pad17)*%
X171958000Y-67046000D03*
%TO.P,A1,18,AREF*%
%TO.N,unconnected-(A1-Pad18)*%
X169418000Y-67046000D03*
%TO.P,A1,19,A0*%
%TO.N,LED*%
X166878000Y-67046000D03*
%TO.P,A1,20,A1*%
%TO.N,~{ERROR}*%
X164338000Y-67046000D03*
%TO.P,A1,21,A2*%
%TO.N,~{EjectMSK}*%
X161798000Y-67046000D03*
%TO.P,A1,22,A3*%
%TO.N,~{MOTOR}*%
X159258000Y-67046000D03*
%TO.P,A1,23,A4*%
%TO.N,LEDFD1*%
X156718000Y-67046000D03*
%TO.P,A1,24,A5*%
%TO.N,unconnected-(A1-Pad24)*%
X154178000Y-67046000D03*
%TO.P,A1,25,A6*%
%TO.N,unconnected-(A1-Pad25)*%
X151638000Y-67046000D03*
%TO.P,A1,26,A7*%
%TO.N,unconnected-(A1-Pad26)*%
X149098000Y-67046000D03*
%TO.P,A1,27,+5V*%
%TO.N,+5V*%
X146558000Y-67046000D03*
%TO.P,A1,28,~{RESET}*%
%TO.N,unconnected-(A1-Pad28)*%
X144018000Y-67046000D03*
%TO.P,A1,29,GND*%
%TO.N,GND*%
X141478000Y-67046000D03*
%TO.P,A1,30,VIN*%
%TO.N,unconnected-(A1-Pad30)*%
X138938000Y-67046000D03*
%TD*%
D22*
%TO.N,~{OPT0}*%
X149244000Y-75886900D03*
%TO.N,~{OPT1}*%
X176856700Y-72365600D03*
X152561100Y-72365600D03*
%TO.N,~{OPT2}*%
X154836800Y-69545300D03*
X176870200Y-69545300D03*
%TO.N,~{OPT3}*%
X156417000Y-84590300D03*
X173500900Y-84590300D03*
%TO.N,~{EJECT}*%
X162631700Y-64859600D03*
%TO.N,~{FDDINT}*%
X159016300Y-59656800D03*
%TO.N,LED_Err*%
X125083500Y-79971900D03*
%TO.N,LEDFD0*%
X136665900Y-77259500D03*
%TD*%
D23*
%TO.N,GND*%
X120654500Y-83775600D02*
X121666000Y-82764100D01*
X189173000Y-80782000D02*
X189173000Y-79606900D01*
X121920000Y-73102100D02*
X121920000Y-73665000D01*
X122420000Y-89921000D02*
X121920000Y-89921000D01*
X123145100Y-89921000D02*
X123145100Y-90379100D01*
X146558000Y-82286000D02*
X146558000Y-83411100D01*
X121460500Y-72439900D02*
X121920000Y-72439900D01*
X189173000Y-67574000D02*
X189173000Y-70114000D01*
X121920000Y-73665000D02*
X121920000Y-74890100D01*
X121666000Y-81539000D02*
X121666000Y-82764100D01*
X120244800Y-61824800D02*
X120244800Y-71224200D01*
X189173000Y-83322000D02*
X189173000Y-80782000D01*
X122891100Y-79548300D02*
X122125500Y-80313900D01*
X147066000Y-87884000D02*
X147066000Y-83919100D01*
X120654500Y-87889800D02*
X120654500Y-83775600D01*
X121920000Y-89921000D02*
X121920000Y-88695900D01*
X189173000Y-70114000D02*
X189173000Y-71289100D01*
X122420000Y-89921000D02*
X123145100Y-89921000D01*
X140716000Y-53719300D02*
X140716000Y-65158900D01*
X120244800Y-71224200D02*
X121460500Y-72439900D01*
X187987400Y-72109400D02*
X188807700Y-71289100D01*
X121460600Y-88695900D02*
X120654500Y-87889800D01*
X123145100Y-90379100D02*
X128016000Y-95250000D01*
X121920000Y-88695900D02*
X121460600Y-88695900D01*
X140716000Y-65158900D02*
X141478000Y-65920900D01*
X122125500Y-80313900D02*
X121666000Y-80313900D01*
X188365100Y-79606900D02*
X187987400Y-79229200D01*
X122891100Y-75861200D02*
X122891100Y-79548300D01*
X147066000Y-83919100D02*
X146558000Y-83411100D01*
X188807700Y-71289100D02*
X189173000Y-71289100D01*
X141478000Y-67046000D02*
X141478000Y-65920900D01*
X189173000Y-79606900D02*
X188365100Y-79606900D01*
X121920000Y-74890100D02*
X122891100Y-75861200D01*
X121666000Y-81539000D02*
X121666000Y-80313900D01*
X187987400Y-79229200D02*
X187987400Y-72109400D01*
X112014000Y-53594000D02*
X120244800Y-61824800D01*
X121920000Y-73102100D02*
X121920000Y-72439900D01*
%TO.N,~{DENSITY}*%
X180881000Y-87089000D02*
X177546000Y-90424000D01*
X180881000Y-56559300D02*
X180881000Y-87089000D01*
%TO.N,~{DS3}*%
X176115300Y-83019300D02*
X176115300Y-57333600D01*
X160951900Y-91609900D02*
X172950200Y-91609900D01*
X173736000Y-85398600D02*
X176115300Y-83019300D01*
X159766000Y-90424000D02*
X160951900Y-91609900D01*
X173736000Y-90824100D02*
X173736000Y-85398600D01*
X172950200Y-91609900D02*
X173736000Y-90824100D01*
X176115300Y-57333600D02*
X175341000Y-56559300D01*
%TO.N,~{INDEX}*%
X172571000Y-56559300D02*
X173145900Y-57134200D01*
X173145900Y-57134200D02*
X173145900Y-83262800D01*
X173145900Y-83262800D02*
X171196000Y-85212700D01*
X171196000Y-89154000D02*
X169926000Y-90424000D01*
X171196000Y-85212700D02*
X171196000Y-89154000D01*
%TO.N,~{DS0}*%
X168656000Y-85398500D02*
X168656000Y-89154000D01*
X168656000Y-89154000D02*
X167386000Y-90424000D01*
X169801000Y-56559300D02*
X170552900Y-57311200D01*
X170552900Y-83501600D02*
X168656000Y-85398500D01*
X170552900Y-57311200D02*
X170552900Y-83501600D01*
%TO.N,~{DS1}*%
X168058900Y-83998300D02*
X166116000Y-85941200D01*
X166116000Y-89154000D02*
X164846000Y-90424000D01*
X167031000Y-56559300D02*
X168058900Y-57587200D01*
X166116000Y-85941200D02*
X166116000Y-89154000D01*
X168058900Y-57587200D02*
X168058900Y-83998300D01*
%TO.N,~{DS2}*%
X167031000Y-53472400D02*
X167925000Y-52578400D01*
X159749800Y-92083200D02*
X158557000Y-90890400D01*
X161036000Y-89154000D02*
X162306000Y-90424000D01*
X167925000Y-52578400D02*
X177177700Y-52578400D01*
X164471200Y-56559300D02*
X167031000Y-53999500D01*
X164261000Y-56559300D02*
X164471200Y-56559300D01*
X179537700Y-55434100D02*
X181879600Y-55434100D01*
X182006200Y-87653200D02*
X177576200Y-92083200D01*
X182006200Y-55560700D02*
X182006200Y-87653200D01*
X167031000Y-53999500D02*
X167031000Y-53472400D01*
X181879600Y-55434100D02*
X182006200Y-55560700D01*
X158557000Y-89953700D02*
X159356700Y-89154000D01*
X177576200Y-92083200D02*
X159749800Y-92083200D01*
X159356700Y-89154000D02*
X161036000Y-89154000D01*
X177177700Y-52578400D02*
X178111000Y-53511700D01*
X178111000Y-53511700D02*
X178111000Y-54007400D01*
X158557000Y-90890400D02*
X158557000Y-89953700D01*
X178111000Y-54007400D02*
X179537700Y-55434100D01*
%TO.N,~{DIR}*%
X158405200Y-89244800D02*
X157226000Y-90424000D01*
X158132800Y-84715200D02*
X158405200Y-84987600D01*
X158721000Y-56559300D02*
X158132800Y-57147500D01*
X158132800Y-57147500D02*
X158132800Y-84715200D01*
X158405200Y-84987600D02*
X158405200Y-89244800D01*
%TO.N,~{STEP}*%
X155865200Y-85063800D02*
X155865200Y-89244800D01*
X155592800Y-56917500D02*
X155592800Y-84791400D01*
X155951000Y-56559300D02*
X155592800Y-56917500D01*
X155865200Y-89244800D02*
X154686000Y-90424000D01*
X155592800Y-84791400D02*
X155865200Y-85063800D01*
%TO.N,~{WDATA}*%
X153052800Y-56687500D02*
X153181000Y-56559300D01*
X153325200Y-84987600D02*
X153052800Y-84715200D01*
X153286200Y-72065200D02*
X153052800Y-71831800D01*
X153052800Y-71831800D02*
X153052800Y-56687500D01*
X153052800Y-72899400D02*
X153286200Y-72666000D01*
X153325200Y-89244800D02*
X153325200Y-84987600D01*
X153286200Y-72666000D02*
X153286200Y-72065200D01*
X153052800Y-84715200D02*
X153052800Y-72899400D01*
X152146000Y-90424000D02*
X153325200Y-89244800D01*
%TO.N,~{WGATE}*%
X150411000Y-84613400D02*
X150817900Y-85020300D01*
X150817900Y-85020300D02*
X150817900Y-89212100D01*
X150817900Y-89212100D02*
X149606000Y-90424000D01*
X150411000Y-56559300D02*
X150411000Y-84613400D01*
%TO.N,~{TRK0}*%
X147828000Y-56746300D02*
X147641000Y-56559300D01*
X148266900Y-84644900D02*
X147828000Y-84206000D01*
X147066000Y-90424000D02*
X148266900Y-89223100D01*
X148266900Y-89223100D02*
X148266900Y-84644900D01*
X147828000Y-84206000D02*
X147828000Y-56746300D01*
%TO.N,~{WPROT}*%
X145714400Y-89235600D02*
X144526000Y-90424000D01*
X144871000Y-56559300D02*
X145143200Y-56831500D01*
X145143200Y-84425600D02*
X145714400Y-84996800D01*
X145714400Y-84996800D02*
X145714400Y-89235600D01*
X145143200Y-56831500D02*
X145143200Y-84425600D01*
%TO.N,~{RDATA}*%
X142101000Y-56559300D02*
X142603200Y-57061500D01*
X142603200Y-84425600D02*
X143174400Y-84996800D01*
X143174400Y-84996800D02*
X143174400Y-89235600D01*
X143174400Y-89235600D02*
X141986000Y-90424000D01*
X142603200Y-57061500D02*
X142603200Y-84425600D01*
%TO.N,~{SIDE}*%
X140634400Y-84996800D02*
X140634400Y-89235600D01*
X140063200Y-84425600D02*
X140634400Y-84996800D01*
X140063200Y-57291500D02*
X140063200Y-84425600D01*
X139331000Y-56559300D02*
X140063200Y-57291500D01*
X140634400Y-89235600D02*
X139446000Y-90424000D01*
%TO.N,~{RDY}*%
X138096600Y-89233400D02*
X138096600Y-85330900D01*
X136906000Y-90424000D02*
X138096600Y-89233400D01*
X137391000Y-57389300D02*
X136561000Y-56559300D01*
X138096600Y-85330900D02*
X137391000Y-84625300D01*
X137391000Y-84625300D02*
X137391000Y-57389300D01*
%TO.N,~{OPT0}*%
X149098000Y-76032900D02*
X149098000Y-82286000D01*
X149244000Y-75886900D02*
X149098000Y-76032900D01*
%TO.N,~{OPT1}*%
X179239800Y-69982500D02*
X176856700Y-72365600D01*
X151638000Y-73288700D02*
X151638000Y-82286000D01*
X176726000Y-53719300D02*
X176868100Y-53719300D01*
X179239800Y-56091000D02*
X179239800Y-69982500D01*
X152561100Y-72365600D02*
X151638000Y-73288700D01*
X176868100Y-53719300D02*
X179239800Y-56091000D01*
%TO.N,~{OPT2}*%
X176870200Y-56462900D02*
X176870200Y-69545300D01*
X173956000Y-53719300D02*
X174126600Y-53719300D01*
X154178000Y-82286000D02*
X154178000Y-70204100D01*
X174126600Y-53719300D02*
X176870200Y-56462900D01*
X154178000Y-70204100D02*
X154836800Y-69545300D01*
%TO.N,~{OPT3}*%
X173823200Y-56202600D02*
X173823200Y-62321500D01*
X171339900Y-53719300D02*
X173823200Y-56202600D01*
X156417000Y-83712100D02*
X156417000Y-84590300D01*
X173799600Y-84590300D02*
X173500900Y-84590300D01*
X156718000Y-83411100D02*
X156417000Y-83712100D01*
X173823200Y-62321500D02*
X175665200Y-64163500D01*
X175665200Y-82724700D02*
X173799600Y-84590300D01*
X171186000Y-53719300D02*
X171339900Y-53719300D01*
X175665200Y-64163500D02*
X175665200Y-82724700D01*
X156718000Y-82286000D02*
X156718000Y-83411100D01*
%TO.N,~{EJECT}*%
X160528000Y-79890900D02*
X160528000Y-66709400D01*
X162377800Y-64859600D02*
X162631700Y-64859600D01*
X160528000Y-66709400D02*
X162377800Y-64859600D01*
X159258000Y-81160900D02*
X160528000Y-79890900D01*
X159258000Y-82286000D02*
X159258000Y-81160900D01*
%TO.N,LED*%
X162876000Y-53719300D02*
X162876000Y-58693700D01*
X166878000Y-62695700D02*
X166878000Y-67046000D01*
X162876000Y-58693700D02*
X166878000Y-62695700D01*
%TO.N,~{INSERTED}*%
X162923100Y-82519200D02*
X162923100Y-82286000D01*
X165499500Y-62158800D02*
X165499500Y-82756100D01*
X160348500Y-57007800D02*
X165499500Y-62158800D01*
X161798000Y-82286000D02*
X162923100Y-82286000D01*
X163887300Y-83483400D02*
X162923100Y-82519200D01*
X160348500Y-53961800D02*
X160348500Y-57007800D01*
X160106000Y-53719300D02*
X160348500Y-53961800D01*
X165499500Y-82756100D02*
X164772200Y-83483400D01*
X164772200Y-83483400D02*
X163887300Y-83483400D01*
%TO.N,~{ERROR}*%
X157336000Y-53719300D02*
X157473600Y-53719300D01*
X157473600Y-53719300D02*
X159881000Y-56126700D01*
X159881000Y-56126700D02*
X159881000Y-57176900D01*
X164338000Y-61633900D02*
X164338000Y-67046000D01*
X159881000Y-57176900D02*
X164338000Y-61633900D01*
%TO.N,~{FDDINT}*%
X164338000Y-81160900D02*
X163193600Y-80016500D01*
X164338000Y-82286000D02*
X164338000Y-81160900D01*
X163364100Y-64004600D02*
X159016300Y-59656800D01*
X163364100Y-65237300D02*
X163364100Y-64004600D01*
X163193600Y-80016500D02*
X163193600Y-65407800D01*
X163193600Y-65407800D02*
X163364100Y-65237300D01*
%TO.N,+5V*%
X190348100Y-75891800D02*
X189173000Y-77066900D01*
X189540200Y-66209100D02*
X190348100Y-67017000D01*
X111944500Y-90932000D02*
X110704100Y-89691600D01*
X110704100Y-77186400D02*
X112198500Y-75692000D01*
X189173000Y-66209100D02*
X189540200Y-66209100D01*
X189173000Y-65034000D02*
X189173000Y-66209100D01*
X189173000Y-78242000D02*
X189173000Y-77066900D01*
X190348100Y-67017000D02*
X190348100Y-75891800D01*
X110704100Y-89691600D02*
X110704100Y-77186400D01*
%TO.N,Net-(D1-Pad2)*%
X125839200Y-83461800D02*
X125839200Y-69486800D01*
X125839200Y-69486800D02*
X131064000Y-64262000D01*
X121920000Y-87381000D02*
X125839200Y-83461800D01*
%TO.N,Net-(D3-Pad2)*%
X121666000Y-78999000D02*
X116840000Y-74173000D01*
X116840000Y-74173000D02*
X116840000Y-61214000D01*
%TO.N,BT_FD0*%
X120396000Y-95250000D02*
X120396000Y-94124900D01*
X119637400Y-94124900D02*
X120396000Y-94124900D01*
X111944500Y-86432000D02*
X119637400Y-94124900D01*
%TO.N,BT_FD1*%
X112014000Y-62339100D02*
X112198500Y-62523600D01*
X112198500Y-62523600D02*
X112198500Y-71192000D01*
X112014000Y-61214000D02*
X112014000Y-62339100D01*
%TO.N,LED_Err*%
X116840000Y-54719100D02*
X120920000Y-58799100D01*
X116840000Y-53594000D02*
X116840000Y-54719100D01*
X125083500Y-68011200D02*
X125083500Y-79971900D01*
X120920000Y-63847700D02*
X125083500Y-68011200D01*
X120920000Y-58799100D02*
X120920000Y-63847700D01*
%TO.N,LEDFD0*%
X125708500Y-63122600D02*
X131516000Y-63122600D01*
X123444000Y-64262000D02*
X124569100Y-64262000D01*
X131516000Y-63122600D02*
X136665900Y-68272500D01*
X136665900Y-68272500D02*
X136665900Y-77259500D01*
X124569100Y-64262000D02*
X125708500Y-63122600D01*
%TD*%
M02*
