%FSLAX45Y45*%
G04 Gerber Fmt 4.5, Leading zero omitted, Abs format (unit mm)*
G04 Created by KiCad (PCBNEW (6.0.6)) date 2023-06-02 12:55:43*
%MOMM*%
%LPD*%
G01*
G04 APERTURE LIST*
%TA.AperFunction,Profile*%
%ADD10C,0.100000*%
%TD*%
%ADD11C,0.200000*%
G04 APERTURE END LIST*
D10*
X11023834Y-4767893D02*
G75*
G03*
X10845800Y-5054600I68196J-240977D01*
G01*
X19786600Y-4775200D02*
X11023834Y-4767895D01*
X10838501Y-9906001D02*
G75*
G03*
X11051896Y-10160000I233689J-20310D01*
G01*
X10845800Y-5054600D02*
X10838495Y-9906000D01*
X19812003Y-10160006D02*
G75*
G03*
X20000001Y-9906000I-108793J277096D01*
G01*
X20000001Y-9906000D02*
X20000001Y-4978400D01*
X11051896Y-10160000D02*
X19812000Y-10160000D01*
X19999998Y-4978400D02*
G75*
G03*
X19786600Y-4775200I-188608J15580D01*
G01*
D11*
X11090239Y-10475476D02*
X11090239Y-10275476D01*
X11137858Y-10275476D01*
X11166430Y-10285000D01*
X11185477Y-10304048D01*
X11195001Y-10323095D01*
X11204525Y-10361190D01*
X11204525Y-10389762D01*
X11195001Y-10427857D01*
X11185477Y-10446905D01*
X11166430Y-10465952D01*
X11137858Y-10475476D01*
X11090239Y-10475476D01*
X11290239Y-10475476D02*
X11290239Y-10342143D01*
X11290239Y-10380238D02*
X11299763Y-10361190D01*
X11309287Y-10351667D01*
X11328335Y-10342143D01*
X11347382Y-10342143D01*
X11414049Y-10475476D02*
X11414049Y-10342143D01*
X11414049Y-10275476D02*
X11404525Y-10285000D01*
X11414049Y-10294524D01*
X11423573Y-10285000D01*
X11414049Y-10275476D01*
X11414049Y-10294524D01*
X11537858Y-10475476D02*
X11518811Y-10465952D01*
X11509287Y-10446905D01*
X11509287Y-10275476D01*
X11642620Y-10475476D02*
X11623573Y-10465952D01*
X11614049Y-10446905D01*
X11614049Y-10275476D01*
X11871192Y-10475476D02*
X11871192Y-10275476D01*
X11937858Y-10418333D01*
X12004525Y-10275476D01*
X12004525Y-10475476D01*
X12185477Y-10475476D02*
X12185477Y-10370714D01*
X12175954Y-10351667D01*
X12156906Y-10342143D01*
X12118811Y-10342143D01*
X12099763Y-10351667D01*
X12185477Y-10465952D02*
X12166430Y-10475476D01*
X12118811Y-10475476D01*
X12099763Y-10465952D01*
X12090239Y-10446905D01*
X12090239Y-10427857D01*
X12099763Y-10408810D01*
X12118811Y-10399286D01*
X12166430Y-10399286D01*
X12185477Y-10389762D01*
X12280716Y-10342143D02*
X12280716Y-10542143D01*
X12280716Y-10351667D02*
X12299763Y-10342143D01*
X12337858Y-10342143D01*
X12356906Y-10351667D01*
X12366430Y-10361190D01*
X12375954Y-10380238D01*
X12375954Y-10437381D01*
X12366430Y-10456429D01*
X12356906Y-10465952D01*
X12337858Y-10475476D01*
X12299763Y-10475476D01*
X12280716Y-10465952D01*
X12461668Y-10456429D02*
X12471192Y-10465952D01*
X12461668Y-10475476D01*
X12452144Y-10465952D01*
X12461668Y-10456429D01*
X12461668Y-10475476D01*
X12461668Y-10351667D02*
X12471192Y-10361190D01*
X12461668Y-10370714D01*
X12452144Y-10361190D01*
X12461668Y-10351667D01*
X12461668Y-10370714D01*
M02*
