%FSLAX45Y45*%
G04 Gerber Fmt 4.5, Leading zero omitted, Abs format (unit mm)*
G04 Created by KiCad (PCBNEW (6.0.6)) date 2023-06-02 12:55:43*
%MOMM*%
%LPD*%
G01*
G04 APERTURE LIST*
%TA.AperFunction,Profile*%
%ADD10C,0.100000*%
%TD*%
%ADD11C,0.200000*%
%ADD12C,0.040000*%
%ADD13C,0.080000*%
%ADD14C,0.090000*%
%ADD15C,0.099000*%
%ADD16C,0.100000*%
%ADD17C,0.130000*%
%ADD18C,0.320000*%
G04 APERTURE END LIST*
D10*
X11023834Y-4767893D02*
G75*
G03*
X10845800Y-5054600I68196J-240977D01*
G01*
X19786600Y-4775200D02*
X11023834Y-4767895D01*
X10838501Y-9906001D02*
G75*
G03*
X11051896Y-10160000I233689J-20310D01*
G01*
X10845800Y-5054600D02*
X10838495Y-9906000D01*
X19812003Y-10160006D02*
G75*
G03*
X20000001Y-9906000I-108793J277096D01*
G01*
X20000001Y-9906000D02*
X20000001Y-4978400D01*
X11051896Y-10160000D02*
X19812000Y-10160000D01*
X19999998Y-4978400D02*
G75*
G03*
X19786600Y-4775200I-188608J15580D01*
G01*
D11*
D12*
X12488350Y-7977190D02*
X12528350Y-8017190D01*
X12528350Y-7977190D02*
X12488350Y-8017190D01*
X13646590Y-7705950D02*
X13686590Y-7745950D01*
X13686590Y-7705950D02*
X13646590Y-7745950D01*
X14904400Y-7568690D02*
X14944400Y-7608690D01*
X14944400Y-7568690D02*
X14904400Y-7608690D01*
X15236110Y-7216560D02*
X15276110Y-7256560D01*
X15276110Y-7216560D02*
X15236110Y-7256560D01*
X15463680Y-6934530D02*
X15503680Y-6974530D01*
X15503680Y-6934530D02*
X15463680Y-6974530D01*
X15621700Y-8439030D02*
X15661700Y-8479030D01*
X15661700Y-8439030D02*
X15621700Y-8479030D01*
X15881630Y-5945680D02*
X15921630Y-5985680D01*
X15921630Y-5945680D02*
X15881630Y-5985680D01*
X16243170Y-6465960D02*
X16283170Y-6505960D01*
X16283170Y-6465960D02*
X16243170Y-6505960D01*
X17330090Y-8439030D02*
X17370090Y-8479030D01*
X17370090Y-8439030D02*
X17330090Y-8479030D01*
X17665670Y-7216560D02*
X17705670Y-7256560D01*
X17705670Y-7216560D02*
X17665670Y-7256560D01*
X17667020Y-6934530D02*
X17707020Y-6974530D01*
X17707020Y-6934530D02*
X17667020Y-6974530D01*
D13*
X11241400Y-5359400D02*
G75*
G03*
X11241400Y-5359400I-40000J0D01*
G01*
X11241400Y-6121400D02*
G75*
G03*
X11241400Y-6121400I-40000J0D01*
G01*
X11724000Y-5359400D02*
G75*
G03*
X11724000Y-5359400I-40000J0D01*
G01*
X11724000Y-6121400D02*
G75*
G03*
X11724000Y-6121400I-40000J0D01*
G01*
X12079600Y-9525000D02*
G75*
G03*
X12079600Y-9525000I-40000J0D01*
G01*
X12384400Y-6426200D02*
G75*
G03*
X12384400Y-6426200I-40000J0D01*
G01*
X12841600Y-9525000D02*
G75*
G03*
X12841600Y-9525000I-40000J0D01*
G01*
X13146400Y-6426200D02*
G75*
G03*
X13146400Y-6426200I-40000J0D01*
G01*
X13171800Y-7061200D02*
G75*
G03*
X13171800Y-7061200I-40000J0D01*
G01*
X13171800Y-7823200D02*
G75*
G03*
X13171800Y-7823200I-40000J0D01*
G01*
D14*
X12166600Y-7854900D02*
X12166600Y-7944900D01*
X12121600Y-7899900D02*
X12211600Y-7899900D01*
X12166600Y-8108900D02*
X12166600Y-8198900D01*
X12121600Y-8153900D02*
X12211600Y-8153900D01*
X12192000Y-7067500D02*
X12192000Y-7157500D01*
X12147000Y-7112500D02*
X12237000Y-7112500D01*
X12192000Y-7321500D02*
X12192000Y-7411500D01*
X12147000Y-7366500D02*
X12237000Y-7366500D01*
X12192000Y-8693100D02*
X12192000Y-8783100D01*
X12147000Y-8738100D02*
X12237000Y-8738100D01*
X12192000Y-8947100D02*
X12192000Y-9037100D01*
X12147000Y-8992100D02*
X12237000Y-8992100D01*
D15*
X11229452Y-8678202D02*
X11229452Y-8608198D01*
X11159448Y-8608198D01*
X11159448Y-8678202D01*
X11229452Y-8678202D01*
X11229452Y-9128202D02*
X11229452Y-9058198D01*
X11159448Y-9058198D01*
X11159448Y-9128202D01*
X11229452Y-9128202D01*
X11254852Y-7154202D02*
X11254852Y-7084198D01*
X11184848Y-7084198D01*
X11184848Y-7154202D01*
X11254852Y-7154202D01*
X11254852Y-7604202D02*
X11254852Y-7534198D01*
X11184848Y-7534198D01*
X11184848Y-7604202D01*
X11254852Y-7604202D01*
D16*
X13102100Y-5705930D02*
X13152100Y-5655930D01*
X13102100Y-5605930D01*
X13052100Y-5655930D01*
X13102100Y-5705930D01*
X13240600Y-5421930D02*
X13290600Y-5371930D01*
X13240600Y-5321930D01*
X13190600Y-5371930D01*
X13240600Y-5421930D01*
X13379100Y-5705930D02*
X13429100Y-5655930D01*
X13379100Y-5605930D01*
X13329100Y-5655930D01*
X13379100Y-5705930D01*
X13517600Y-5421930D02*
X13567600Y-5371930D01*
X13517600Y-5321930D01*
X13467600Y-5371930D01*
X13517600Y-5421930D01*
X13656100Y-5705930D02*
X13706100Y-5655930D01*
X13656100Y-5605930D01*
X13606100Y-5655930D01*
X13656100Y-5705930D01*
X13690600Y-8838400D02*
X13740600Y-8788400D01*
X13690600Y-8738400D01*
X13640600Y-8788400D01*
X13690600Y-8838400D01*
X13690600Y-9092400D02*
X13740600Y-9042400D01*
X13690600Y-8992400D01*
X13640600Y-9042400D01*
X13690600Y-9092400D01*
X13794600Y-5421930D02*
X13844600Y-5371930D01*
X13794600Y-5321930D01*
X13744600Y-5371930D01*
X13794600Y-5421930D01*
X13893800Y-6754600D02*
X13943800Y-6704600D01*
X13893800Y-6654600D01*
X13843800Y-6704600D01*
X13893800Y-6754600D01*
X13893800Y-8278600D02*
X13943800Y-8228600D01*
X13893800Y-8178600D01*
X13843800Y-8228600D01*
X13893800Y-8278600D01*
X13933100Y-5705930D02*
X13983100Y-5655930D01*
X13933100Y-5605930D01*
X13883100Y-5655930D01*
X13933100Y-5705930D01*
X13944600Y-8838400D02*
X13994600Y-8788400D01*
X13944600Y-8738400D01*
X13894600Y-8788400D01*
X13944600Y-8838400D01*
X13944600Y-9092400D02*
X13994600Y-9042400D01*
X13944600Y-8992400D01*
X13894600Y-9042400D01*
X13944600Y-9092400D01*
X14071600Y-5421930D02*
X14121600Y-5371930D01*
X14071600Y-5321930D01*
X14021600Y-5371930D01*
X14071600Y-5421930D01*
X14147800Y-6754600D02*
X14197800Y-6704600D01*
X14147800Y-6654600D01*
X14097800Y-6704600D01*
X14147800Y-6754600D01*
X14147800Y-8278600D02*
X14197800Y-8228600D01*
X14147800Y-8178600D01*
X14097800Y-8228600D01*
X14147800Y-8278600D01*
X14198600Y-8838400D02*
X14248600Y-8788400D01*
X14198600Y-8738400D01*
X14148600Y-8788400D01*
X14198600Y-8838400D01*
X14198600Y-9092400D02*
X14248600Y-9042400D01*
X14198600Y-8992400D01*
X14148600Y-9042400D01*
X14198600Y-9092400D01*
X14210100Y-5705930D02*
X14260100Y-5655930D01*
X14210100Y-5605930D01*
X14160100Y-5655930D01*
X14210100Y-5705930D01*
X14348600Y-5421930D02*
X14398600Y-5371930D01*
X14348600Y-5321930D01*
X14298600Y-5371930D01*
X14348600Y-5421930D01*
X14401800Y-6754600D02*
X14451800Y-6704600D01*
X14401800Y-6654600D01*
X14351800Y-6704600D01*
X14401800Y-6754600D01*
X14401800Y-8278600D02*
X14451800Y-8228600D01*
X14401800Y-8178600D01*
X14351800Y-8228600D01*
X14401800Y-8278600D01*
X14452600Y-8838400D02*
X14502600Y-8788400D01*
X14452600Y-8738400D01*
X14402600Y-8788400D01*
X14452600Y-8838400D01*
X14452600Y-9092400D02*
X14502600Y-9042400D01*
X14452600Y-8992400D01*
X14402600Y-9042400D01*
X14452600Y-9092400D01*
X14487100Y-5705930D02*
X14537100Y-5655930D01*
X14487100Y-5605930D01*
X14437100Y-5655930D01*
X14487100Y-5705930D01*
X14625600Y-5421930D02*
X14675600Y-5371930D01*
X14625600Y-5321930D01*
X14575600Y-5371930D01*
X14625600Y-5421930D01*
X14655800Y-6754600D02*
X14705800Y-6704600D01*
X14655800Y-6654600D01*
X14605800Y-6704600D01*
X14655800Y-6754600D01*
X14655800Y-8278600D02*
X14705800Y-8228600D01*
X14655800Y-8178600D01*
X14605800Y-8228600D01*
X14655800Y-8278600D01*
X14706600Y-8838400D02*
X14756600Y-8788400D01*
X14706600Y-8738400D01*
X14656600Y-8788400D01*
X14706600Y-8838400D01*
X14706600Y-9092400D02*
X14756600Y-9042400D01*
X14706600Y-8992400D01*
X14656600Y-9042400D01*
X14706600Y-9092400D01*
X14764100Y-5705930D02*
X14814100Y-5655930D01*
X14764100Y-5605930D01*
X14714100Y-5655930D01*
X14764100Y-5705930D01*
X14902600Y-5421930D02*
X14952600Y-5371930D01*
X14902600Y-5321930D01*
X14852600Y-5371930D01*
X14902600Y-5421930D01*
X14909800Y-6754600D02*
X14959800Y-6704600D01*
X14909800Y-6654600D01*
X14859800Y-6704600D01*
X14909800Y-6754600D01*
X14909800Y-8278600D02*
X14959800Y-8228600D01*
X14909800Y-8178600D01*
X14859800Y-8228600D01*
X14909800Y-8278600D01*
X14960600Y-8838400D02*
X15010600Y-8788400D01*
X14960600Y-8738400D01*
X14910600Y-8788400D01*
X14960600Y-8838400D01*
X14960600Y-9092400D02*
X15010600Y-9042400D01*
X14960600Y-8992400D01*
X14910600Y-9042400D01*
X14960600Y-9092400D01*
X15041100Y-5705930D02*
X15091100Y-5655930D01*
X15041100Y-5605930D01*
X14991100Y-5655930D01*
X15041100Y-5705930D01*
X15163800Y-6754600D02*
X15213800Y-6704600D01*
X15163800Y-6654600D01*
X15113800Y-6704600D01*
X15163800Y-6754600D01*
X15163800Y-8278600D02*
X15213800Y-8228600D01*
X15163800Y-8178600D01*
X15113800Y-8228600D01*
X15163800Y-8278600D01*
X15179600Y-5421930D02*
X15229600Y-5371930D01*
X15179600Y-5321930D01*
X15129600Y-5371930D01*
X15179600Y-5421930D01*
X15214600Y-8838400D02*
X15264600Y-8788400D01*
X15214600Y-8738400D01*
X15164600Y-8788400D01*
X15214600Y-8838400D01*
X15214600Y-9092400D02*
X15264600Y-9042400D01*
X15214600Y-8992400D01*
X15164600Y-9042400D01*
X15214600Y-9092400D01*
X15318100Y-5705930D02*
X15368100Y-5655930D01*
X15318100Y-5605930D01*
X15268100Y-5655930D01*
X15318100Y-5705930D01*
X15417800Y-6754600D02*
X15467800Y-6704600D01*
X15417800Y-6654600D01*
X15367800Y-6704600D01*
X15417800Y-6754600D01*
X15417800Y-8278600D02*
X15467800Y-8228600D01*
X15417800Y-8178600D01*
X15367800Y-8228600D01*
X15417800Y-8278600D01*
X15456600Y-5421930D02*
X15506600Y-5371930D01*
X15456600Y-5321930D01*
X15406600Y-5371930D01*
X15456600Y-5421930D01*
X15468600Y-8838400D02*
X15518600Y-8788400D01*
X15468600Y-8738400D01*
X15418600Y-8788400D01*
X15468600Y-8838400D01*
X15468600Y-9092400D02*
X15518600Y-9042400D01*
X15468600Y-8992400D01*
X15418600Y-9042400D01*
X15468600Y-9092400D01*
X15595100Y-5705930D02*
X15645100Y-5655930D01*
X15595100Y-5605930D01*
X15545100Y-5655930D01*
X15595100Y-5705930D01*
X15671800Y-6754600D02*
X15721800Y-6704600D01*
X15671800Y-6654600D01*
X15621800Y-6704600D01*
X15671800Y-6754600D01*
X15671800Y-8278600D02*
X15721800Y-8228600D01*
X15671800Y-8178600D01*
X15621800Y-8228600D01*
X15671800Y-8278600D01*
X15722600Y-8838400D02*
X15772600Y-8788400D01*
X15722600Y-8738400D01*
X15672600Y-8788400D01*
X15722600Y-8838400D01*
X15722600Y-9092400D02*
X15772600Y-9042400D01*
X15722600Y-8992400D01*
X15672600Y-9042400D01*
X15722600Y-9092400D01*
X15733600Y-5421930D02*
X15783600Y-5371930D01*
X15733600Y-5321930D01*
X15683600Y-5371930D01*
X15733600Y-5421930D01*
X15872100Y-5705930D02*
X15922100Y-5655930D01*
X15872100Y-5605930D01*
X15822100Y-5655930D01*
X15872100Y-5705930D01*
X15925800Y-6754600D02*
X15975800Y-6704600D01*
X15925800Y-6654600D01*
X15875800Y-6704600D01*
X15925800Y-6754600D01*
X15925800Y-8278600D02*
X15975800Y-8228600D01*
X15925800Y-8178600D01*
X15875800Y-8228600D01*
X15925800Y-8278600D01*
X15976600Y-8838400D02*
X16026600Y-8788400D01*
X15976600Y-8738400D01*
X15926600Y-8788400D01*
X15976600Y-8838400D01*
X15976600Y-9092400D02*
X16026600Y-9042400D01*
X15976600Y-8992400D01*
X15926600Y-9042400D01*
X15976600Y-9092400D01*
X16010600Y-5421930D02*
X16060600Y-5371930D01*
X16010600Y-5321930D01*
X15960600Y-5371930D01*
X16010600Y-5421930D01*
X16149100Y-5705930D02*
X16199100Y-5655930D01*
X16149100Y-5605930D01*
X16099100Y-5655930D01*
X16149100Y-5705930D01*
X16179800Y-6754600D02*
X16229800Y-6704600D01*
X16179800Y-6654600D01*
X16129800Y-6704600D01*
X16179800Y-6754600D01*
X16179800Y-8278600D02*
X16229800Y-8228600D01*
X16179800Y-8178600D01*
X16129800Y-8228600D01*
X16179800Y-8278600D01*
X16230600Y-8838400D02*
X16280600Y-8788400D01*
X16230600Y-8738400D01*
X16180600Y-8788400D01*
X16230600Y-8838400D01*
X16230600Y-9092400D02*
X16280600Y-9042400D01*
X16230600Y-8992400D01*
X16180600Y-9042400D01*
X16230600Y-9092400D01*
X16287600Y-5421930D02*
X16337600Y-5371930D01*
X16287600Y-5321930D01*
X16237600Y-5371930D01*
X16287600Y-5421930D01*
X16426100Y-5705930D02*
X16476100Y-5655930D01*
X16426100Y-5605930D01*
X16376100Y-5655930D01*
X16426100Y-5705930D01*
X16433800Y-6754600D02*
X16483800Y-6704600D01*
X16433800Y-6654600D01*
X16383800Y-6704600D01*
X16433800Y-6754600D01*
X16433800Y-8278600D02*
X16483800Y-8228600D01*
X16433800Y-8178600D01*
X16383800Y-8228600D01*
X16433800Y-8278600D01*
X16484600Y-8838400D02*
X16534600Y-8788400D01*
X16484600Y-8738400D01*
X16434600Y-8788400D01*
X16484600Y-8838400D01*
X16484600Y-9092400D02*
X16534600Y-9042400D01*
X16484600Y-8992400D01*
X16434600Y-9042400D01*
X16484600Y-9092400D01*
X16564600Y-5421930D02*
X16614600Y-5371930D01*
X16564600Y-5321930D01*
X16514600Y-5371930D01*
X16564600Y-5421930D01*
X16687800Y-6754600D02*
X16737800Y-6704600D01*
X16687800Y-6654600D01*
X16637800Y-6704600D01*
X16687800Y-6754600D01*
X16687800Y-8278600D02*
X16737800Y-8228600D01*
X16687800Y-8178600D01*
X16637800Y-8228600D01*
X16687800Y-8278600D01*
X16703100Y-5705930D02*
X16753100Y-5655930D01*
X16703100Y-5605930D01*
X16653100Y-5655930D01*
X16703100Y-5705930D01*
X16738600Y-8838400D02*
X16788600Y-8788400D01*
X16738600Y-8738400D01*
X16688600Y-8788400D01*
X16738600Y-8838400D01*
X16738600Y-9092400D02*
X16788600Y-9042400D01*
X16738600Y-8992400D01*
X16688600Y-9042400D01*
X16738600Y-9092400D01*
X16841600Y-5421930D02*
X16891600Y-5371930D01*
X16841600Y-5321930D01*
X16791600Y-5371930D01*
X16841600Y-5421930D01*
X16941800Y-6754600D02*
X16991800Y-6704600D01*
X16941800Y-6654600D01*
X16891800Y-6704600D01*
X16941800Y-6754600D01*
X16941800Y-8278600D02*
X16991800Y-8228600D01*
X16941800Y-8178600D01*
X16891800Y-8228600D01*
X16941800Y-8278600D01*
X16980100Y-5705930D02*
X17030100Y-5655930D01*
X16980100Y-5605930D01*
X16930100Y-5655930D01*
X16980100Y-5705930D01*
X16992600Y-8838400D02*
X17042600Y-8788400D01*
X16992600Y-8738400D01*
X16942600Y-8788400D01*
X16992600Y-8838400D01*
X16992600Y-9092400D02*
X17042600Y-9042400D01*
X16992600Y-8992400D01*
X16942600Y-9042400D01*
X16992600Y-9092400D01*
X17118600Y-5421930D02*
X17168600Y-5371930D01*
X17118600Y-5321930D01*
X17068600Y-5371930D01*
X17118600Y-5421930D01*
X17195800Y-6754600D02*
X17245800Y-6704600D01*
X17195800Y-6654600D01*
X17145800Y-6704600D01*
X17195800Y-6754600D01*
X17195800Y-8278600D02*
X17245800Y-8228600D01*
X17195800Y-8178600D01*
X17145800Y-8228600D01*
X17195800Y-8278600D01*
X17246600Y-8838400D02*
X17296600Y-8788400D01*
X17246600Y-8738400D01*
X17196600Y-8788400D01*
X17246600Y-8838400D01*
X17246600Y-9092400D02*
X17296600Y-9042400D01*
X17246600Y-8992400D01*
X17196600Y-9042400D01*
X17246600Y-9092400D01*
X17257100Y-5705930D02*
X17307100Y-5655930D01*
X17257100Y-5605930D01*
X17207100Y-5655930D01*
X17257100Y-5705930D01*
X17395600Y-5421930D02*
X17445600Y-5371930D01*
X17395600Y-5321930D01*
X17345600Y-5371930D01*
X17395600Y-5421930D01*
X17449800Y-6754600D02*
X17499800Y-6704600D01*
X17449800Y-6654600D01*
X17399800Y-6704600D01*
X17449800Y-6754600D01*
X17449800Y-8278600D02*
X17499800Y-8228600D01*
X17449800Y-8178600D01*
X17399800Y-8228600D01*
X17449800Y-8278600D01*
X17500600Y-8838400D02*
X17550600Y-8788400D01*
X17500600Y-8738400D01*
X17450600Y-8788400D01*
X17500600Y-8838400D01*
X17500600Y-9092400D02*
X17550600Y-9042400D01*
X17500600Y-8992400D01*
X17450600Y-9042400D01*
X17500600Y-9092400D01*
X17534100Y-5705930D02*
X17584100Y-5655930D01*
X17534100Y-5605930D01*
X17484100Y-5655930D01*
X17534100Y-5705930D01*
X17672600Y-5421930D02*
X17722600Y-5371930D01*
X17672600Y-5321930D01*
X17622600Y-5371930D01*
X17672600Y-5421930D01*
X17754600Y-8838400D02*
X17804600Y-8788400D01*
X17754600Y-8738400D01*
X17704600Y-8788400D01*
X17754600Y-8838400D01*
X17754600Y-9092400D02*
X17804600Y-9042400D01*
X17754600Y-8992400D01*
X17704600Y-9042400D01*
X17754600Y-9092400D01*
X17811100Y-5705930D02*
X17861100Y-5655930D01*
X17811100Y-5605930D01*
X17761100Y-5655930D01*
X17811100Y-5705930D01*
X17949600Y-5421930D02*
X17999600Y-5371930D01*
X17949600Y-5321930D01*
X17899600Y-5371930D01*
X17949600Y-5421930D01*
X18088100Y-5705930D02*
X18138100Y-5655930D01*
X18088100Y-5605930D01*
X18038100Y-5655930D01*
X18088100Y-5705930D01*
X18917300Y-6553400D02*
X18967300Y-6503400D01*
X18917300Y-6453400D01*
X18867300Y-6503400D01*
X18917300Y-6553400D01*
X18917300Y-6807400D02*
X18967300Y-6757400D01*
X18917300Y-6707400D01*
X18867300Y-6757400D01*
X18917300Y-6807400D01*
X18917300Y-7061400D02*
X18967300Y-7011400D01*
X18917300Y-6961400D01*
X18867300Y-7011400D01*
X18917300Y-7061400D01*
X18917300Y-7315400D02*
X18967300Y-7265400D01*
X18917300Y-7215400D01*
X18867300Y-7265400D01*
X18917300Y-7315400D01*
X18917300Y-7874200D02*
X18967300Y-7824200D01*
X18917300Y-7774200D01*
X18867300Y-7824200D01*
X18917300Y-7874200D01*
X18917300Y-8128200D02*
X18967300Y-8078200D01*
X18917300Y-8028200D01*
X18867300Y-8078200D01*
X18917300Y-8128200D01*
X18917300Y-8382200D02*
X18967300Y-8332200D01*
X18917300Y-8282200D01*
X18867300Y-8332200D01*
X18917300Y-8382200D01*
X18917300Y-8636200D02*
X18967300Y-8586200D01*
X18917300Y-8536200D01*
X18867300Y-8586200D01*
X18917300Y-8636200D01*
D17*
X11378450Y-8452200D02*
X11508450Y-8582200D01*
X11508450Y-8452200D02*
X11378450Y-8582200D01*
X11508450Y-8517200D02*
G75*
G03*
X11508450Y-8517200I-65000J0D01*
G01*
X11378450Y-9153200D02*
X11508450Y-9283200D01*
X11508450Y-9153200D02*
X11378450Y-9283200D01*
X11508450Y-9218200D02*
G75*
G03*
X11508450Y-9218200I-65000J0D01*
G01*
X11403850Y-6928200D02*
X11533850Y-7058200D01*
X11533850Y-6928200D02*
X11403850Y-7058200D01*
X11533850Y-6993200D02*
G75*
G03*
X11533850Y-6993200I-65000J0D01*
G01*
X11403850Y-7629200D02*
X11533850Y-7759200D01*
X11533850Y-7629200D02*
X11403850Y-7759200D01*
X11533850Y-7694200D02*
G75*
G03*
X11533850Y-7694200I-65000J0D01*
G01*
D18*
X12260100Y-5465930D02*
X12580100Y-5785930D01*
X12580100Y-5465930D02*
X12260100Y-5785930D01*
X12420100Y-5465930D02*
X12420100Y-5785930D01*
X12260100Y-5625930D02*
X12580100Y-5625930D01*
X18610100Y-5465930D02*
X18930100Y-5785930D01*
X18930100Y-5465930D02*
X18610100Y-5785930D01*
X18770100Y-5465930D02*
X18770100Y-5785930D01*
X18610100Y-5625930D02*
X18930100Y-5625930D01*
D11*
X11090239Y-10475476D02*
X11090239Y-10275476D01*
X11137858Y-10275476D01*
X11166430Y-10285000D01*
X11185477Y-10304048D01*
X11195001Y-10323095D01*
X11204525Y-10361190D01*
X11204525Y-10389762D01*
X11195001Y-10427857D01*
X11185477Y-10446905D01*
X11166430Y-10465952D01*
X11137858Y-10475476D01*
X11090239Y-10475476D01*
X11290239Y-10475476D02*
X11290239Y-10342143D01*
X11290239Y-10380238D02*
X11299763Y-10361190D01*
X11309287Y-10351667D01*
X11328335Y-10342143D01*
X11347382Y-10342143D01*
X11414049Y-10475476D02*
X11414049Y-10342143D01*
X11414049Y-10275476D02*
X11404525Y-10285000D01*
X11414049Y-10294524D01*
X11423573Y-10285000D01*
X11414049Y-10275476D01*
X11414049Y-10294524D01*
X11537858Y-10475476D02*
X11518811Y-10465952D01*
X11509287Y-10446905D01*
X11509287Y-10275476D01*
X11642620Y-10475476D02*
X11623573Y-10465952D01*
X11614049Y-10446905D01*
X11614049Y-10275476D01*
X11871192Y-10475476D02*
X11871192Y-10275476D01*
X11937858Y-10418333D01*
X12004525Y-10275476D01*
X12004525Y-10475476D01*
X12185477Y-10475476D02*
X12185477Y-10370714D01*
X12175954Y-10351667D01*
X12156906Y-10342143D01*
X12118811Y-10342143D01*
X12099763Y-10351667D01*
X12185477Y-10465952D02*
X12166430Y-10475476D01*
X12118811Y-10475476D01*
X12099763Y-10465952D01*
X12090239Y-10446905D01*
X12090239Y-10427857D01*
X12099763Y-10408810D01*
X12118811Y-10399286D01*
X12166430Y-10399286D01*
X12185477Y-10389762D01*
X12280716Y-10342143D02*
X12280716Y-10542143D01*
X12280716Y-10351667D02*
X12299763Y-10342143D01*
X12337858Y-10342143D01*
X12356906Y-10351667D01*
X12366430Y-10361190D01*
X12375954Y-10380238D01*
X12375954Y-10437381D01*
X12366430Y-10456429D01*
X12356906Y-10465952D01*
X12337858Y-10475476D01*
X12299763Y-10475476D01*
X12280716Y-10465952D01*
X12461668Y-10456429D02*
X12471192Y-10465952D01*
X12461668Y-10475476D01*
X12452144Y-10465952D01*
X12461668Y-10456429D01*
X12461668Y-10475476D01*
X12461668Y-10351667D02*
X12471192Y-10361190D01*
X12461668Y-10370714D01*
X12452144Y-10361190D01*
X12461668Y-10351667D01*
X12461668Y-10370714D01*
D12*
X10792620Y-10785000D02*
X10832620Y-10825000D01*
X10832620Y-10785000D02*
X10792620Y-10825000D01*
D11*
X11128335Y-10695476D02*
X11147382Y-10695476D01*
X11166430Y-10705000D01*
X11175954Y-10714524D01*
X11185477Y-10733571D01*
X11195001Y-10771667D01*
X11195001Y-10819286D01*
X11185477Y-10857381D01*
X11175954Y-10876429D01*
X11166430Y-10885952D01*
X11147382Y-10895476D01*
X11128335Y-10895476D01*
X11109287Y-10885952D01*
X11099763Y-10876429D01*
X11090239Y-10857381D01*
X11080716Y-10819286D01*
X11080716Y-10771667D01*
X11090239Y-10733571D01*
X11099763Y-10714524D01*
X11109287Y-10705000D01*
X11128335Y-10695476D01*
X11280716Y-10876429D02*
X11290239Y-10885952D01*
X11280716Y-10895476D01*
X11271192Y-10885952D01*
X11280716Y-10876429D01*
X11280716Y-10895476D01*
X11461668Y-10762143D02*
X11461668Y-10895476D01*
X11414049Y-10685952D02*
X11366430Y-10828810D01*
X11490239Y-10828810D01*
X11604525Y-10695476D02*
X11623573Y-10695476D01*
X11642620Y-10705000D01*
X11652144Y-10714524D01*
X11661668Y-10733571D01*
X11671192Y-10771667D01*
X11671192Y-10819286D01*
X11661668Y-10857381D01*
X11652144Y-10876429D01*
X11642620Y-10885952D01*
X11623573Y-10895476D01*
X11604525Y-10895476D01*
X11585477Y-10885952D01*
X11575954Y-10876429D01*
X11566430Y-10857381D01*
X11556906Y-10819286D01*
X11556906Y-10771667D01*
X11566430Y-10733571D01*
X11575954Y-10714524D01*
X11585477Y-10705000D01*
X11604525Y-10695476D01*
X11795001Y-10695476D02*
X11814049Y-10695476D01*
X11833096Y-10705000D01*
X11842620Y-10714524D01*
X11852144Y-10733571D01*
X11861668Y-10771667D01*
X11861668Y-10819286D01*
X11852144Y-10857381D01*
X11842620Y-10876429D01*
X11833096Y-10885952D01*
X11814049Y-10895476D01*
X11795001Y-10895476D01*
X11775954Y-10885952D01*
X11766430Y-10876429D01*
X11756906Y-10857381D01*
X11747382Y-10819286D01*
X11747382Y-10771667D01*
X11756906Y-10733571D01*
X11766430Y-10714524D01*
X11775954Y-10705000D01*
X11795001Y-10695476D01*
X11947382Y-10895476D02*
X11947382Y-10762143D01*
X11947382Y-10781190D02*
X11956906Y-10771667D01*
X11975954Y-10762143D01*
X12004525Y-10762143D01*
X12023573Y-10771667D01*
X12033096Y-10790714D01*
X12033096Y-10895476D01*
X12033096Y-10790714D02*
X12042620Y-10771667D01*
X12061668Y-10762143D01*
X12090239Y-10762143D01*
X12109287Y-10771667D01*
X12118811Y-10790714D01*
X12118811Y-10895476D01*
X12214049Y-10895476D02*
X12214049Y-10762143D01*
X12214049Y-10781190D02*
X12223573Y-10771667D01*
X12242620Y-10762143D01*
X12271192Y-10762143D01*
X12290239Y-10771667D01*
X12299763Y-10790714D01*
X12299763Y-10895476D01*
X12299763Y-10790714D02*
X12309287Y-10771667D01*
X12328335Y-10762143D01*
X12356906Y-10762143D01*
X12375954Y-10771667D01*
X12385477Y-10790714D01*
X12385477Y-10895476D01*
X12775954Y-10685952D02*
X12604525Y-10943095D01*
X13033096Y-10695476D02*
X13052144Y-10695476D01*
X13071192Y-10705000D01*
X13080716Y-10714524D01*
X13090239Y-10733571D01*
X13099763Y-10771667D01*
X13099763Y-10819286D01*
X13090239Y-10857381D01*
X13080716Y-10876429D01*
X13071192Y-10885952D01*
X13052144Y-10895476D01*
X13033096Y-10895476D01*
X13014049Y-10885952D01*
X13004525Y-10876429D01*
X12995001Y-10857381D01*
X12985477Y-10819286D01*
X12985477Y-10771667D01*
X12995001Y-10733571D01*
X13004525Y-10714524D01*
X13014049Y-10705000D01*
X13033096Y-10695476D01*
X13185477Y-10876429D02*
X13195001Y-10885952D01*
X13185477Y-10895476D01*
X13175954Y-10885952D01*
X13185477Y-10876429D01*
X13185477Y-10895476D01*
X13318811Y-10695476D02*
X13337858Y-10695476D01*
X13356906Y-10705000D01*
X13366430Y-10714524D01*
X13375954Y-10733571D01*
X13385477Y-10771667D01*
X13385477Y-10819286D01*
X13375954Y-10857381D01*
X13366430Y-10876429D01*
X13356906Y-10885952D01*
X13337858Y-10895476D01*
X13318811Y-10895476D01*
X13299763Y-10885952D01*
X13290239Y-10876429D01*
X13280716Y-10857381D01*
X13271192Y-10819286D01*
X13271192Y-10771667D01*
X13280716Y-10733571D01*
X13290239Y-10714524D01*
X13299763Y-10705000D01*
X13318811Y-10695476D01*
X13575954Y-10895476D02*
X13461668Y-10895476D01*
X13518811Y-10895476D02*
X13518811Y-10695476D01*
X13499763Y-10724048D01*
X13480716Y-10743095D01*
X13461668Y-10752619D01*
X13756906Y-10695476D02*
X13661668Y-10695476D01*
X13652144Y-10790714D01*
X13661668Y-10781190D01*
X13680716Y-10771667D01*
X13728335Y-10771667D01*
X13747382Y-10781190D01*
X13756906Y-10790714D01*
X13766430Y-10809762D01*
X13766430Y-10857381D01*
X13756906Y-10876429D01*
X13747382Y-10885952D01*
X13728335Y-10895476D01*
X13680716Y-10895476D01*
X13661668Y-10885952D01*
X13652144Y-10876429D01*
X13833096Y-10695476D02*
X13966430Y-10695476D01*
X13880716Y-10895476D01*
X14033096Y-10695476D02*
X14033096Y-10733571D01*
X14109287Y-10695476D02*
X14109287Y-10733571D01*
X14404525Y-10971667D02*
X14395001Y-10962143D01*
X14375954Y-10933571D01*
X14366430Y-10914524D01*
X14356906Y-10885952D01*
X14347382Y-10838333D01*
X14347382Y-10800238D01*
X14356906Y-10752619D01*
X14366430Y-10724048D01*
X14375954Y-10705000D01*
X14395001Y-10676429D01*
X14404525Y-10666905D01*
X14585477Y-10895476D02*
X14471192Y-10895476D01*
X14528335Y-10895476D02*
X14528335Y-10695476D01*
X14509287Y-10724048D01*
X14490239Y-10743095D01*
X14471192Y-10752619D01*
X14775954Y-10895476D02*
X14661668Y-10895476D01*
X14718811Y-10895476D02*
X14718811Y-10695476D01*
X14699763Y-10724048D01*
X14680716Y-10743095D01*
X14661668Y-10752619D01*
X15014049Y-10895476D02*
X15014049Y-10695476D01*
X15099763Y-10895476D02*
X15099763Y-10790714D01*
X15090239Y-10771667D01*
X15071192Y-10762143D01*
X15042620Y-10762143D01*
X15023573Y-10771667D01*
X15014049Y-10781190D01*
X15223573Y-10895476D02*
X15204525Y-10885952D01*
X15195001Y-10876429D01*
X15185477Y-10857381D01*
X15185477Y-10800238D01*
X15195001Y-10781190D01*
X15204525Y-10771667D01*
X15223573Y-10762143D01*
X15252144Y-10762143D01*
X15271192Y-10771667D01*
X15280716Y-10781190D01*
X15290239Y-10800238D01*
X15290239Y-10857381D01*
X15280716Y-10876429D01*
X15271192Y-10885952D01*
X15252144Y-10895476D01*
X15223573Y-10895476D01*
X15404525Y-10895476D02*
X15385477Y-10885952D01*
X15375954Y-10866905D01*
X15375954Y-10695476D01*
X15556906Y-10885952D02*
X15537858Y-10895476D01*
X15499763Y-10895476D01*
X15480716Y-10885952D01*
X15471192Y-10866905D01*
X15471192Y-10790714D01*
X15480716Y-10771667D01*
X15499763Y-10762143D01*
X15537858Y-10762143D01*
X15556906Y-10771667D01*
X15566430Y-10790714D01*
X15566430Y-10809762D01*
X15471192Y-10828810D01*
X15642620Y-10885952D02*
X15661668Y-10895476D01*
X15699763Y-10895476D01*
X15718811Y-10885952D01*
X15728335Y-10866905D01*
X15728335Y-10857381D01*
X15718811Y-10838333D01*
X15699763Y-10828810D01*
X15671192Y-10828810D01*
X15652144Y-10819286D01*
X15642620Y-10800238D01*
X15642620Y-10790714D01*
X15652144Y-10771667D01*
X15671192Y-10762143D01*
X15699763Y-10762143D01*
X15718811Y-10771667D01*
X15795001Y-10971667D02*
X15804525Y-10962143D01*
X15823573Y-10933571D01*
X15833096Y-10914524D01*
X15842620Y-10885952D01*
X15852144Y-10838333D01*
X15852144Y-10800238D01*
X15842620Y-10752619D01*
X15833096Y-10724048D01*
X15823573Y-10705000D01*
X15804525Y-10676429D01*
X15795001Y-10666905D01*
D13*
X10832620Y-11069000D02*
G75*
G03*
X10832620Y-11069000I-40000J0D01*
G01*
D11*
X11128335Y-10959476D02*
X11147382Y-10959476D01*
X11166430Y-10969000D01*
X11175954Y-10978524D01*
X11185477Y-10997571D01*
X11195001Y-11035667D01*
X11195001Y-11083286D01*
X11185477Y-11121381D01*
X11175954Y-11140429D01*
X11166430Y-11149952D01*
X11147382Y-11159476D01*
X11128335Y-11159476D01*
X11109287Y-11149952D01*
X11099763Y-11140429D01*
X11090239Y-11121381D01*
X11080716Y-11083286D01*
X11080716Y-11035667D01*
X11090239Y-10997571D01*
X11099763Y-10978524D01*
X11109287Y-10969000D01*
X11128335Y-10959476D01*
X11280716Y-11140429D02*
X11290239Y-11149952D01*
X11280716Y-11159476D01*
X11271192Y-11149952D01*
X11280716Y-11140429D01*
X11280716Y-11159476D01*
X11404525Y-11045190D02*
X11385477Y-11035667D01*
X11375954Y-11026143D01*
X11366430Y-11007095D01*
X11366430Y-10997571D01*
X11375954Y-10978524D01*
X11385477Y-10969000D01*
X11404525Y-10959476D01*
X11442620Y-10959476D01*
X11461668Y-10969000D01*
X11471192Y-10978524D01*
X11480716Y-10997571D01*
X11480716Y-11007095D01*
X11471192Y-11026143D01*
X11461668Y-11035667D01*
X11442620Y-11045190D01*
X11404525Y-11045190D01*
X11385477Y-11054714D01*
X11375954Y-11064238D01*
X11366430Y-11083286D01*
X11366430Y-11121381D01*
X11375954Y-11140429D01*
X11385477Y-11149952D01*
X11404525Y-11159476D01*
X11442620Y-11159476D01*
X11461668Y-11149952D01*
X11471192Y-11140429D01*
X11480716Y-11121381D01*
X11480716Y-11083286D01*
X11471192Y-11064238D01*
X11461668Y-11054714D01*
X11442620Y-11045190D01*
X11604525Y-10959476D02*
X11623573Y-10959476D01*
X11642620Y-10969000D01*
X11652144Y-10978524D01*
X11661668Y-10997571D01*
X11671192Y-11035667D01*
X11671192Y-11083286D01*
X11661668Y-11121381D01*
X11652144Y-11140429D01*
X11642620Y-11149952D01*
X11623573Y-11159476D01*
X11604525Y-11159476D01*
X11585477Y-11149952D01*
X11575954Y-11140429D01*
X11566430Y-11121381D01*
X11556906Y-11083286D01*
X11556906Y-11035667D01*
X11566430Y-10997571D01*
X11575954Y-10978524D01*
X11585477Y-10969000D01*
X11604525Y-10959476D01*
X11795001Y-10959476D02*
X11814049Y-10959476D01*
X11833096Y-10969000D01*
X11842620Y-10978524D01*
X11852144Y-10997571D01*
X11861668Y-11035667D01*
X11861668Y-11083286D01*
X11852144Y-11121381D01*
X11842620Y-11140429D01*
X11833096Y-11149952D01*
X11814049Y-11159476D01*
X11795001Y-11159476D01*
X11775954Y-11149952D01*
X11766430Y-11140429D01*
X11756906Y-11121381D01*
X11747382Y-11083286D01*
X11747382Y-11035667D01*
X11756906Y-10997571D01*
X11766430Y-10978524D01*
X11775954Y-10969000D01*
X11795001Y-10959476D01*
X11947382Y-11159476D02*
X11947382Y-11026143D01*
X11947382Y-11045190D02*
X11956906Y-11035667D01*
X11975954Y-11026143D01*
X12004525Y-11026143D01*
X12023573Y-11035667D01*
X12033096Y-11054714D01*
X12033096Y-11159476D01*
X12033096Y-11054714D02*
X12042620Y-11035667D01*
X12061668Y-11026143D01*
X12090239Y-11026143D01*
X12109287Y-11035667D01*
X12118811Y-11054714D01*
X12118811Y-11159476D01*
X12214049Y-11159476D02*
X12214049Y-11026143D01*
X12214049Y-11045190D02*
X12223573Y-11035667D01*
X12242620Y-11026143D01*
X12271192Y-11026143D01*
X12290239Y-11035667D01*
X12299763Y-11054714D01*
X12299763Y-11159476D01*
X12299763Y-11054714D02*
X12309287Y-11035667D01*
X12328335Y-11026143D01*
X12356906Y-11026143D01*
X12375954Y-11035667D01*
X12385477Y-11054714D01*
X12385477Y-11159476D01*
X12775954Y-10949952D02*
X12604525Y-11207095D01*
X13033096Y-10959476D02*
X13052144Y-10959476D01*
X13071192Y-10969000D01*
X13080716Y-10978524D01*
X13090239Y-10997571D01*
X13099763Y-11035667D01*
X13099763Y-11083286D01*
X13090239Y-11121381D01*
X13080716Y-11140429D01*
X13071192Y-11149952D01*
X13052144Y-11159476D01*
X13033096Y-11159476D01*
X13014049Y-11149952D01*
X13004525Y-11140429D01*
X12995001Y-11121381D01*
X12985477Y-11083286D01*
X12985477Y-11035667D01*
X12995001Y-10997571D01*
X13004525Y-10978524D01*
X13014049Y-10969000D01*
X13033096Y-10959476D01*
X13185477Y-11140429D02*
X13195001Y-11149952D01*
X13185477Y-11159476D01*
X13175954Y-11149952D01*
X13185477Y-11140429D01*
X13185477Y-11159476D01*
X13318811Y-10959476D02*
X13337858Y-10959476D01*
X13356906Y-10969000D01*
X13366430Y-10978524D01*
X13375954Y-10997571D01*
X13385477Y-11035667D01*
X13385477Y-11083286D01*
X13375954Y-11121381D01*
X13366430Y-11140429D01*
X13356906Y-11149952D01*
X13337858Y-11159476D01*
X13318811Y-11159476D01*
X13299763Y-11149952D01*
X13290239Y-11140429D01*
X13280716Y-11121381D01*
X13271192Y-11083286D01*
X13271192Y-11035667D01*
X13280716Y-10997571D01*
X13290239Y-10978524D01*
X13299763Y-10969000D01*
X13318811Y-10959476D01*
X13452144Y-10959476D02*
X13575954Y-10959476D01*
X13509287Y-11035667D01*
X13537858Y-11035667D01*
X13556906Y-11045190D01*
X13566430Y-11054714D01*
X13575954Y-11073762D01*
X13575954Y-11121381D01*
X13566430Y-11140429D01*
X13556906Y-11149952D01*
X13537858Y-11159476D01*
X13480716Y-11159476D01*
X13461668Y-11149952D01*
X13452144Y-11140429D01*
X13766430Y-11159476D02*
X13652144Y-11159476D01*
X13709287Y-11159476D02*
X13709287Y-10959476D01*
X13690239Y-10988048D01*
X13671192Y-11007095D01*
X13652144Y-11016619D01*
X13947382Y-10959476D02*
X13852144Y-10959476D01*
X13842620Y-11054714D01*
X13852144Y-11045190D01*
X13871192Y-11035667D01*
X13918811Y-11035667D01*
X13937858Y-11045190D01*
X13947382Y-11054714D01*
X13956906Y-11073762D01*
X13956906Y-11121381D01*
X13947382Y-11140429D01*
X13937858Y-11149952D01*
X13918811Y-11159476D01*
X13871192Y-11159476D01*
X13852144Y-11149952D01*
X13842620Y-11140429D01*
X14033096Y-10959476D02*
X14033096Y-10997571D01*
X14109287Y-10959476D02*
X14109287Y-10997571D01*
X14404525Y-11235667D02*
X14395001Y-11226143D01*
X14375954Y-11197571D01*
X14366430Y-11178524D01*
X14356906Y-11149952D01*
X14347382Y-11102333D01*
X14347382Y-11064238D01*
X14356906Y-11016619D01*
X14366430Y-10988048D01*
X14375954Y-10969000D01*
X14395001Y-10940429D01*
X14404525Y-10930905D01*
X14585477Y-11159476D02*
X14471192Y-11159476D01*
X14528335Y-11159476D02*
X14528335Y-10959476D01*
X14509287Y-10988048D01*
X14490239Y-11007095D01*
X14471192Y-11016619D01*
X14709287Y-10959476D02*
X14728335Y-10959476D01*
X14747382Y-10969000D01*
X14756906Y-10978524D01*
X14766430Y-10997571D01*
X14775954Y-11035667D01*
X14775954Y-11083286D01*
X14766430Y-11121381D01*
X14756906Y-11140429D01*
X14747382Y-11149952D01*
X14728335Y-11159476D01*
X14709287Y-11159476D01*
X14690239Y-11149952D01*
X14680716Y-11140429D01*
X14671192Y-11121381D01*
X14661668Y-11083286D01*
X14661668Y-11035667D01*
X14671192Y-10997571D01*
X14680716Y-10978524D01*
X14690239Y-10969000D01*
X14709287Y-10959476D01*
X15014049Y-11159476D02*
X15014049Y-10959476D01*
X15099763Y-11159476D02*
X15099763Y-11054714D01*
X15090239Y-11035667D01*
X15071192Y-11026143D01*
X15042620Y-11026143D01*
X15023573Y-11035667D01*
X15014049Y-11045190D01*
X15223573Y-11159476D02*
X15204525Y-11149952D01*
X15195001Y-11140429D01*
X15185477Y-11121381D01*
X15185477Y-11064238D01*
X15195001Y-11045190D01*
X15204525Y-11035667D01*
X15223573Y-11026143D01*
X15252144Y-11026143D01*
X15271192Y-11035667D01*
X15280716Y-11045190D01*
X15290239Y-11064238D01*
X15290239Y-11121381D01*
X15280716Y-11140429D01*
X15271192Y-11149952D01*
X15252144Y-11159476D01*
X15223573Y-11159476D01*
X15404525Y-11159476D02*
X15385477Y-11149952D01*
X15375954Y-11130905D01*
X15375954Y-10959476D01*
X15556906Y-11149952D02*
X15537858Y-11159476D01*
X15499763Y-11159476D01*
X15480716Y-11149952D01*
X15471192Y-11130905D01*
X15471192Y-11054714D01*
X15480716Y-11035667D01*
X15499763Y-11026143D01*
X15537858Y-11026143D01*
X15556906Y-11035667D01*
X15566430Y-11054714D01*
X15566430Y-11073762D01*
X15471192Y-11092810D01*
X15642620Y-11149952D02*
X15661668Y-11159476D01*
X15699763Y-11159476D01*
X15718811Y-11149952D01*
X15728335Y-11130905D01*
X15728335Y-11121381D01*
X15718811Y-11102333D01*
X15699763Y-11092810D01*
X15671192Y-11092810D01*
X15652144Y-11083286D01*
X15642620Y-11064238D01*
X15642620Y-11054714D01*
X15652144Y-11035667D01*
X15671192Y-11026143D01*
X15699763Y-11026143D01*
X15718811Y-11035667D01*
X15795001Y-11235667D02*
X15804525Y-11226143D01*
X15823573Y-11197571D01*
X15833096Y-11178524D01*
X15842620Y-11149952D01*
X15852144Y-11102333D01*
X15852144Y-11064238D01*
X15842620Y-11016619D01*
X15833096Y-10988048D01*
X15823573Y-10969000D01*
X15804525Y-10940429D01*
X15795001Y-10930905D01*
D14*
X10787620Y-11288000D02*
X10787620Y-11378000D01*
X10742620Y-11333000D02*
X10832620Y-11333000D01*
D11*
X11128335Y-11223476D02*
X11147382Y-11223476D01*
X11166430Y-11233000D01*
X11175954Y-11242524D01*
X11185477Y-11261571D01*
X11195001Y-11299667D01*
X11195001Y-11347286D01*
X11185477Y-11385381D01*
X11175954Y-11404428D01*
X11166430Y-11413952D01*
X11147382Y-11423476D01*
X11128335Y-11423476D01*
X11109287Y-11413952D01*
X11099763Y-11404428D01*
X11090239Y-11385381D01*
X11080716Y-11347286D01*
X11080716Y-11299667D01*
X11090239Y-11261571D01*
X11099763Y-11242524D01*
X11109287Y-11233000D01*
X11128335Y-11223476D01*
X11280716Y-11404428D02*
X11290239Y-11413952D01*
X11280716Y-11423476D01*
X11271192Y-11413952D01*
X11280716Y-11404428D01*
X11280716Y-11423476D01*
X11385477Y-11423476D02*
X11423573Y-11423476D01*
X11442620Y-11413952D01*
X11452144Y-11404428D01*
X11471192Y-11375857D01*
X11480716Y-11337762D01*
X11480716Y-11261571D01*
X11471192Y-11242524D01*
X11461668Y-11233000D01*
X11442620Y-11223476D01*
X11404525Y-11223476D01*
X11385477Y-11233000D01*
X11375954Y-11242524D01*
X11366430Y-11261571D01*
X11366430Y-11309190D01*
X11375954Y-11328238D01*
X11385477Y-11337762D01*
X11404525Y-11347286D01*
X11442620Y-11347286D01*
X11461668Y-11337762D01*
X11471192Y-11328238D01*
X11480716Y-11309190D01*
X11604525Y-11223476D02*
X11623573Y-11223476D01*
X11642620Y-11233000D01*
X11652144Y-11242524D01*
X11661668Y-11261571D01*
X11671192Y-11299667D01*
X11671192Y-11347286D01*
X11661668Y-11385381D01*
X11652144Y-11404428D01*
X11642620Y-11413952D01*
X11623573Y-11423476D01*
X11604525Y-11423476D01*
X11585477Y-11413952D01*
X11575954Y-11404428D01*
X11566430Y-11385381D01*
X11556906Y-11347286D01*
X11556906Y-11299667D01*
X11566430Y-11261571D01*
X11575954Y-11242524D01*
X11585477Y-11233000D01*
X11604525Y-11223476D01*
X11795001Y-11223476D02*
X11814049Y-11223476D01*
X11833096Y-11233000D01*
X11842620Y-11242524D01*
X11852144Y-11261571D01*
X11861668Y-11299667D01*
X11861668Y-11347286D01*
X11852144Y-11385381D01*
X11842620Y-11404428D01*
X11833096Y-11413952D01*
X11814049Y-11423476D01*
X11795001Y-11423476D01*
X11775954Y-11413952D01*
X11766430Y-11404428D01*
X11756906Y-11385381D01*
X11747382Y-11347286D01*
X11747382Y-11299667D01*
X11756906Y-11261571D01*
X11766430Y-11242524D01*
X11775954Y-11233000D01*
X11795001Y-11223476D01*
X11947382Y-11423476D02*
X11947382Y-11290143D01*
X11947382Y-11309190D02*
X11956906Y-11299667D01*
X11975954Y-11290143D01*
X12004525Y-11290143D01*
X12023573Y-11299667D01*
X12033096Y-11318714D01*
X12033096Y-11423476D01*
X12033096Y-11318714D02*
X12042620Y-11299667D01*
X12061668Y-11290143D01*
X12090239Y-11290143D01*
X12109287Y-11299667D01*
X12118811Y-11318714D01*
X12118811Y-11423476D01*
X12214049Y-11423476D02*
X12214049Y-11290143D01*
X12214049Y-11309190D02*
X12223573Y-11299667D01*
X12242620Y-11290143D01*
X12271192Y-11290143D01*
X12290239Y-11299667D01*
X12299763Y-11318714D01*
X12299763Y-11423476D01*
X12299763Y-11318714D02*
X12309287Y-11299667D01*
X12328335Y-11290143D01*
X12356906Y-11290143D01*
X12375954Y-11299667D01*
X12385477Y-11318714D01*
X12385477Y-11423476D01*
X12775954Y-11213952D02*
X12604525Y-11471095D01*
X13033096Y-11223476D02*
X13052144Y-11223476D01*
X13071192Y-11233000D01*
X13080716Y-11242524D01*
X13090239Y-11261571D01*
X13099763Y-11299667D01*
X13099763Y-11347286D01*
X13090239Y-11385381D01*
X13080716Y-11404428D01*
X13071192Y-11413952D01*
X13052144Y-11423476D01*
X13033096Y-11423476D01*
X13014049Y-11413952D01*
X13004525Y-11404428D01*
X12995001Y-11385381D01*
X12985477Y-11347286D01*
X12985477Y-11299667D01*
X12995001Y-11261571D01*
X13004525Y-11242524D01*
X13014049Y-11233000D01*
X13033096Y-11223476D01*
X13185477Y-11404428D02*
X13195001Y-11413952D01*
X13185477Y-11423476D01*
X13175954Y-11413952D01*
X13185477Y-11404428D01*
X13185477Y-11423476D01*
X13318811Y-11223476D02*
X13337858Y-11223476D01*
X13356906Y-11233000D01*
X13366430Y-11242524D01*
X13375954Y-11261571D01*
X13385477Y-11299667D01*
X13385477Y-11347286D01*
X13375954Y-11385381D01*
X13366430Y-11404428D01*
X13356906Y-11413952D01*
X13337858Y-11423476D01*
X13318811Y-11423476D01*
X13299763Y-11413952D01*
X13290239Y-11404428D01*
X13280716Y-11385381D01*
X13271192Y-11347286D01*
X13271192Y-11299667D01*
X13280716Y-11261571D01*
X13290239Y-11242524D01*
X13299763Y-11233000D01*
X13318811Y-11223476D01*
X13452144Y-11223476D02*
X13575954Y-11223476D01*
X13509287Y-11299667D01*
X13537858Y-11299667D01*
X13556906Y-11309190D01*
X13566430Y-11318714D01*
X13575954Y-11337762D01*
X13575954Y-11385381D01*
X13566430Y-11404428D01*
X13556906Y-11413952D01*
X13537858Y-11423476D01*
X13480716Y-11423476D01*
X13461668Y-11413952D01*
X13452144Y-11404428D01*
X13756906Y-11223476D02*
X13661668Y-11223476D01*
X13652144Y-11318714D01*
X13661668Y-11309190D01*
X13680716Y-11299667D01*
X13728335Y-11299667D01*
X13747382Y-11309190D01*
X13756906Y-11318714D01*
X13766430Y-11337762D01*
X13766430Y-11385381D01*
X13756906Y-11404428D01*
X13747382Y-11413952D01*
X13728335Y-11423476D01*
X13680716Y-11423476D01*
X13661668Y-11413952D01*
X13652144Y-11404428D01*
X13937858Y-11290143D02*
X13937858Y-11423476D01*
X13890239Y-11213952D02*
X13842620Y-11356809D01*
X13966430Y-11356809D01*
X14033096Y-11223476D02*
X14033096Y-11261571D01*
X14109287Y-11223476D02*
X14109287Y-11261571D01*
X14404525Y-11499667D02*
X14395001Y-11490143D01*
X14375954Y-11461571D01*
X14366430Y-11442524D01*
X14356906Y-11413952D01*
X14347382Y-11366333D01*
X14347382Y-11328238D01*
X14356906Y-11280619D01*
X14366430Y-11252048D01*
X14375954Y-11233000D01*
X14395001Y-11204428D01*
X14404525Y-11194905D01*
X14566430Y-11223476D02*
X14528335Y-11223476D01*
X14509287Y-11233000D01*
X14499763Y-11242524D01*
X14480716Y-11271095D01*
X14471192Y-11309190D01*
X14471192Y-11385381D01*
X14480716Y-11404428D01*
X14490239Y-11413952D01*
X14509287Y-11423476D01*
X14547382Y-11423476D01*
X14566430Y-11413952D01*
X14575954Y-11404428D01*
X14585477Y-11385381D01*
X14585477Y-11337762D01*
X14575954Y-11318714D01*
X14566430Y-11309190D01*
X14547382Y-11299667D01*
X14509287Y-11299667D01*
X14490239Y-11309190D01*
X14480716Y-11318714D01*
X14471192Y-11337762D01*
X14823573Y-11423476D02*
X14823573Y-11223476D01*
X14909287Y-11423476D02*
X14909287Y-11318714D01*
X14899763Y-11299667D01*
X14880716Y-11290143D01*
X14852144Y-11290143D01*
X14833096Y-11299667D01*
X14823573Y-11309190D01*
X15033096Y-11423476D02*
X15014049Y-11413952D01*
X15004525Y-11404428D01*
X14995001Y-11385381D01*
X14995001Y-11328238D01*
X15004525Y-11309190D01*
X15014049Y-11299667D01*
X15033096Y-11290143D01*
X15061668Y-11290143D01*
X15080716Y-11299667D01*
X15090239Y-11309190D01*
X15099763Y-11328238D01*
X15099763Y-11385381D01*
X15090239Y-11404428D01*
X15080716Y-11413952D01*
X15061668Y-11423476D01*
X15033096Y-11423476D01*
X15214049Y-11423476D02*
X15195001Y-11413952D01*
X15185477Y-11394905D01*
X15185477Y-11223476D01*
X15366430Y-11413952D02*
X15347382Y-11423476D01*
X15309287Y-11423476D01*
X15290239Y-11413952D01*
X15280716Y-11394905D01*
X15280716Y-11318714D01*
X15290239Y-11299667D01*
X15309287Y-11290143D01*
X15347382Y-11290143D01*
X15366430Y-11299667D01*
X15375954Y-11318714D01*
X15375954Y-11337762D01*
X15280716Y-11356809D01*
X15452144Y-11413952D02*
X15471192Y-11423476D01*
X15509287Y-11423476D01*
X15528335Y-11413952D01*
X15537858Y-11394905D01*
X15537858Y-11385381D01*
X15528335Y-11366333D01*
X15509287Y-11356809D01*
X15480716Y-11356809D01*
X15461668Y-11347286D01*
X15452144Y-11328238D01*
X15452144Y-11318714D01*
X15461668Y-11299667D01*
X15480716Y-11290143D01*
X15509287Y-11290143D01*
X15528335Y-11299667D01*
X15604525Y-11499667D02*
X15614049Y-11490143D01*
X15633096Y-11461571D01*
X15642620Y-11442524D01*
X15652144Y-11413952D01*
X15661668Y-11366333D01*
X15661668Y-11328238D01*
X15652144Y-11280619D01*
X15642620Y-11252048D01*
X15633096Y-11233000D01*
X15614049Y-11204428D01*
X15604525Y-11194905D01*
D15*
X10818123Y-11632002D02*
X10818123Y-11561998D01*
X10748118Y-11561998D01*
X10748118Y-11632002D01*
X10818123Y-11632002D01*
D11*
X11128335Y-11487476D02*
X11147382Y-11487476D01*
X11166430Y-11497000D01*
X11175954Y-11506524D01*
X11185477Y-11525571D01*
X11195001Y-11563667D01*
X11195001Y-11611286D01*
X11185477Y-11649381D01*
X11175954Y-11668428D01*
X11166430Y-11677952D01*
X11147382Y-11687476D01*
X11128335Y-11687476D01*
X11109287Y-11677952D01*
X11099763Y-11668428D01*
X11090239Y-11649381D01*
X11080716Y-11611286D01*
X11080716Y-11563667D01*
X11090239Y-11525571D01*
X11099763Y-11506524D01*
X11109287Y-11497000D01*
X11128335Y-11487476D01*
X11280716Y-11668428D02*
X11290239Y-11677952D01*
X11280716Y-11687476D01*
X11271192Y-11677952D01*
X11280716Y-11668428D01*
X11280716Y-11687476D01*
X11385477Y-11687476D02*
X11423573Y-11687476D01*
X11442620Y-11677952D01*
X11452144Y-11668428D01*
X11471192Y-11639857D01*
X11480716Y-11601762D01*
X11480716Y-11525571D01*
X11471192Y-11506524D01*
X11461668Y-11497000D01*
X11442620Y-11487476D01*
X11404525Y-11487476D01*
X11385477Y-11497000D01*
X11375954Y-11506524D01*
X11366430Y-11525571D01*
X11366430Y-11573190D01*
X11375954Y-11592238D01*
X11385477Y-11601762D01*
X11404525Y-11611286D01*
X11442620Y-11611286D01*
X11461668Y-11601762D01*
X11471192Y-11592238D01*
X11480716Y-11573190D01*
X11575954Y-11687476D02*
X11614049Y-11687476D01*
X11633096Y-11677952D01*
X11642620Y-11668428D01*
X11661668Y-11639857D01*
X11671192Y-11601762D01*
X11671192Y-11525571D01*
X11661668Y-11506524D01*
X11652144Y-11497000D01*
X11633096Y-11487476D01*
X11595001Y-11487476D01*
X11575954Y-11497000D01*
X11566430Y-11506524D01*
X11556906Y-11525571D01*
X11556906Y-11573190D01*
X11566430Y-11592238D01*
X11575954Y-11601762D01*
X11595001Y-11611286D01*
X11633096Y-11611286D01*
X11652144Y-11601762D01*
X11661668Y-11592238D01*
X11671192Y-11573190D01*
X11795001Y-11487476D02*
X11814049Y-11487476D01*
X11833096Y-11497000D01*
X11842620Y-11506524D01*
X11852144Y-11525571D01*
X11861668Y-11563667D01*
X11861668Y-11611286D01*
X11852144Y-11649381D01*
X11842620Y-11668428D01*
X11833096Y-11677952D01*
X11814049Y-11687476D01*
X11795001Y-11687476D01*
X11775954Y-11677952D01*
X11766430Y-11668428D01*
X11756906Y-11649381D01*
X11747382Y-11611286D01*
X11747382Y-11563667D01*
X11756906Y-11525571D01*
X11766430Y-11506524D01*
X11775954Y-11497000D01*
X11795001Y-11487476D01*
X11947382Y-11687476D02*
X11947382Y-11554143D01*
X11947382Y-11573190D02*
X11956906Y-11563667D01*
X11975954Y-11554143D01*
X12004525Y-11554143D01*
X12023573Y-11563667D01*
X12033096Y-11582714D01*
X12033096Y-11687476D01*
X12033096Y-11582714D02*
X12042620Y-11563667D01*
X12061668Y-11554143D01*
X12090239Y-11554143D01*
X12109287Y-11563667D01*
X12118811Y-11582714D01*
X12118811Y-11687476D01*
X12214049Y-11687476D02*
X12214049Y-11554143D01*
X12214049Y-11573190D02*
X12223573Y-11563667D01*
X12242620Y-11554143D01*
X12271192Y-11554143D01*
X12290239Y-11563667D01*
X12299763Y-11582714D01*
X12299763Y-11687476D01*
X12299763Y-11582714D02*
X12309287Y-11563667D01*
X12328335Y-11554143D01*
X12356906Y-11554143D01*
X12375954Y-11563667D01*
X12385477Y-11582714D01*
X12385477Y-11687476D01*
X12775954Y-11477952D02*
X12604525Y-11735095D01*
X13033096Y-11487476D02*
X13052144Y-11487476D01*
X13071192Y-11497000D01*
X13080716Y-11506524D01*
X13090239Y-11525571D01*
X13099763Y-11563667D01*
X13099763Y-11611286D01*
X13090239Y-11649381D01*
X13080716Y-11668428D01*
X13071192Y-11677952D01*
X13052144Y-11687476D01*
X13033096Y-11687476D01*
X13014049Y-11677952D01*
X13004525Y-11668428D01*
X12995001Y-11649381D01*
X12985477Y-11611286D01*
X12985477Y-11563667D01*
X12995001Y-11525571D01*
X13004525Y-11506524D01*
X13014049Y-11497000D01*
X13033096Y-11487476D01*
X13185477Y-11668428D02*
X13195001Y-11677952D01*
X13185477Y-11687476D01*
X13175954Y-11677952D01*
X13185477Y-11668428D01*
X13185477Y-11687476D01*
X13318811Y-11487476D02*
X13337858Y-11487476D01*
X13356906Y-11497000D01*
X13366430Y-11506524D01*
X13375954Y-11525571D01*
X13385477Y-11563667D01*
X13385477Y-11611286D01*
X13375954Y-11649381D01*
X13366430Y-11668428D01*
X13356906Y-11677952D01*
X13337858Y-11687476D01*
X13318811Y-11687476D01*
X13299763Y-11677952D01*
X13290239Y-11668428D01*
X13280716Y-11649381D01*
X13271192Y-11611286D01*
X13271192Y-11563667D01*
X13280716Y-11525571D01*
X13290239Y-11506524D01*
X13299763Y-11497000D01*
X13318811Y-11487476D01*
X13452144Y-11487476D02*
X13575954Y-11487476D01*
X13509287Y-11563667D01*
X13537858Y-11563667D01*
X13556906Y-11573190D01*
X13566430Y-11582714D01*
X13575954Y-11601762D01*
X13575954Y-11649381D01*
X13566430Y-11668428D01*
X13556906Y-11677952D01*
X13537858Y-11687476D01*
X13480716Y-11687476D01*
X13461668Y-11677952D01*
X13452144Y-11668428D01*
X13671192Y-11687476D02*
X13709287Y-11687476D01*
X13728335Y-11677952D01*
X13737858Y-11668428D01*
X13756906Y-11639857D01*
X13766430Y-11601762D01*
X13766430Y-11525571D01*
X13756906Y-11506524D01*
X13747382Y-11497000D01*
X13728335Y-11487476D01*
X13690239Y-11487476D01*
X13671192Y-11497000D01*
X13661668Y-11506524D01*
X13652144Y-11525571D01*
X13652144Y-11573190D01*
X13661668Y-11592238D01*
X13671192Y-11601762D01*
X13690239Y-11611286D01*
X13728335Y-11611286D01*
X13747382Y-11601762D01*
X13756906Y-11592238D01*
X13766430Y-11573190D01*
X13890239Y-11487476D02*
X13909287Y-11487476D01*
X13928335Y-11497000D01*
X13937858Y-11506524D01*
X13947382Y-11525571D01*
X13956906Y-11563667D01*
X13956906Y-11611286D01*
X13947382Y-11649381D01*
X13937858Y-11668428D01*
X13928335Y-11677952D01*
X13909287Y-11687476D01*
X13890239Y-11687476D01*
X13871192Y-11677952D01*
X13861668Y-11668428D01*
X13852144Y-11649381D01*
X13842620Y-11611286D01*
X13842620Y-11563667D01*
X13852144Y-11525571D01*
X13861668Y-11506524D01*
X13871192Y-11497000D01*
X13890239Y-11487476D01*
X14033096Y-11487476D02*
X14033096Y-11525571D01*
X14109287Y-11487476D02*
X14109287Y-11525571D01*
X14404525Y-11763667D02*
X14395001Y-11754143D01*
X14375954Y-11725571D01*
X14366430Y-11706524D01*
X14356906Y-11677952D01*
X14347382Y-11630333D01*
X14347382Y-11592238D01*
X14356906Y-11544619D01*
X14366430Y-11516048D01*
X14375954Y-11497000D01*
X14395001Y-11468428D01*
X14404525Y-11458905D01*
X14566430Y-11554143D02*
X14566430Y-11687476D01*
X14518811Y-11477952D02*
X14471192Y-11620809D01*
X14595001Y-11620809D01*
X14823573Y-11687476D02*
X14823573Y-11487476D01*
X14909287Y-11687476D02*
X14909287Y-11582714D01*
X14899763Y-11563667D01*
X14880716Y-11554143D01*
X14852144Y-11554143D01*
X14833096Y-11563667D01*
X14823573Y-11573190D01*
X15033096Y-11687476D02*
X15014049Y-11677952D01*
X15004525Y-11668428D01*
X14995001Y-11649381D01*
X14995001Y-11592238D01*
X15004525Y-11573190D01*
X15014049Y-11563667D01*
X15033096Y-11554143D01*
X15061668Y-11554143D01*
X15080716Y-11563667D01*
X15090239Y-11573190D01*
X15099763Y-11592238D01*
X15099763Y-11649381D01*
X15090239Y-11668428D01*
X15080716Y-11677952D01*
X15061668Y-11687476D01*
X15033096Y-11687476D01*
X15214049Y-11687476D02*
X15195001Y-11677952D01*
X15185477Y-11658905D01*
X15185477Y-11487476D01*
X15366430Y-11677952D02*
X15347382Y-11687476D01*
X15309287Y-11687476D01*
X15290239Y-11677952D01*
X15280716Y-11658905D01*
X15280716Y-11582714D01*
X15290239Y-11563667D01*
X15309287Y-11554143D01*
X15347382Y-11554143D01*
X15366430Y-11563667D01*
X15375954Y-11582714D01*
X15375954Y-11601762D01*
X15280716Y-11620809D01*
X15452144Y-11677952D02*
X15471192Y-11687476D01*
X15509287Y-11687476D01*
X15528335Y-11677952D01*
X15537858Y-11658905D01*
X15537858Y-11649381D01*
X15528335Y-11630333D01*
X15509287Y-11620809D01*
X15480716Y-11620809D01*
X15461668Y-11611286D01*
X15452144Y-11592238D01*
X15452144Y-11582714D01*
X15461668Y-11563667D01*
X15480716Y-11554143D01*
X15509287Y-11554143D01*
X15528335Y-11563667D01*
X15604525Y-11763667D02*
X15614049Y-11754143D01*
X15633096Y-11725571D01*
X15642620Y-11706524D01*
X15652144Y-11677952D01*
X15661668Y-11630333D01*
X15661668Y-11592238D01*
X15652144Y-11544619D01*
X15642620Y-11516048D01*
X15633096Y-11497000D01*
X15614049Y-11468428D01*
X15604525Y-11458905D01*
D16*
X10782620Y-11911000D02*
X10832620Y-11861000D01*
X10782620Y-11811000D01*
X10732620Y-11861000D01*
X10782620Y-11911000D01*
D11*
X11195001Y-11951476D02*
X11080716Y-11951476D01*
X11137858Y-11951476D02*
X11137858Y-11751476D01*
X11118811Y-11780048D01*
X11099763Y-11799095D01*
X11080716Y-11808619D01*
X11280716Y-11932428D02*
X11290239Y-11941952D01*
X11280716Y-11951476D01*
X11271192Y-11941952D01*
X11280716Y-11932428D01*
X11280716Y-11951476D01*
X11414049Y-11751476D02*
X11433096Y-11751476D01*
X11452144Y-11761000D01*
X11461668Y-11770524D01*
X11471192Y-11789571D01*
X11480716Y-11827667D01*
X11480716Y-11875286D01*
X11471192Y-11913381D01*
X11461668Y-11932428D01*
X11452144Y-11941952D01*
X11433096Y-11951476D01*
X11414049Y-11951476D01*
X11395001Y-11941952D01*
X11385477Y-11932428D01*
X11375954Y-11913381D01*
X11366430Y-11875286D01*
X11366430Y-11827667D01*
X11375954Y-11789571D01*
X11385477Y-11770524D01*
X11395001Y-11761000D01*
X11414049Y-11751476D01*
X11604525Y-11751476D02*
X11623573Y-11751476D01*
X11642620Y-11761000D01*
X11652144Y-11770524D01*
X11661668Y-11789571D01*
X11671192Y-11827667D01*
X11671192Y-11875286D01*
X11661668Y-11913381D01*
X11652144Y-11932428D01*
X11642620Y-11941952D01*
X11623573Y-11951476D01*
X11604525Y-11951476D01*
X11585477Y-11941952D01*
X11575954Y-11932428D01*
X11566430Y-11913381D01*
X11556906Y-11875286D01*
X11556906Y-11827667D01*
X11566430Y-11789571D01*
X11575954Y-11770524D01*
X11585477Y-11761000D01*
X11604525Y-11751476D01*
X11795001Y-11751476D02*
X11814049Y-11751476D01*
X11833096Y-11761000D01*
X11842620Y-11770524D01*
X11852144Y-11789571D01*
X11861668Y-11827667D01*
X11861668Y-11875286D01*
X11852144Y-11913381D01*
X11842620Y-11932428D01*
X11833096Y-11941952D01*
X11814049Y-11951476D01*
X11795001Y-11951476D01*
X11775954Y-11941952D01*
X11766430Y-11932428D01*
X11756906Y-11913381D01*
X11747382Y-11875286D01*
X11747382Y-11827667D01*
X11756906Y-11789571D01*
X11766430Y-11770524D01*
X11775954Y-11761000D01*
X11795001Y-11751476D01*
X11947382Y-11951476D02*
X11947382Y-11818143D01*
X11947382Y-11837190D02*
X11956906Y-11827667D01*
X11975954Y-11818143D01*
X12004525Y-11818143D01*
X12023573Y-11827667D01*
X12033096Y-11846714D01*
X12033096Y-11951476D01*
X12033096Y-11846714D02*
X12042620Y-11827667D01*
X12061668Y-11818143D01*
X12090239Y-11818143D01*
X12109287Y-11827667D01*
X12118811Y-11846714D01*
X12118811Y-11951476D01*
X12214049Y-11951476D02*
X12214049Y-11818143D01*
X12214049Y-11837190D02*
X12223573Y-11827667D01*
X12242620Y-11818143D01*
X12271192Y-11818143D01*
X12290239Y-11827667D01*
X12299763Y-11846714D01*
X12299763Y-11951476D01*
X12299763Y-11846714D02*
X12309287Y-11827667D01*
X12328335Y-11818143D01*
X12356906Y-11818143D01*
X12375954Y-11827667D01*
X12385477Y-11846714D01*
X12385477Y-11951476D01*
X12775954Y-11741952D02*
X12604525Y-11999095D01*
X13033096Y-11751476D02*
X13052144Y-11751476D01*
X13071192Y-11761000D01*
X13080716Y-11770524D01*
X13090239Y-11789571D01*
X13099763Y-11827667D01*
X13099763Y-11875286D01*
X13090239Y-11913381D01*
X13080716Y-11932428D01*
X13071192Y-11941952D01*
X13052144Y-11951476D01*
X13033096Y-11951476D01*
X13014049Y-11941952D01*
X13004525Y-11932428D01*
X12995001Y-11913381D01*
X12985477Y-11875286D01*
X12985477Y-11827667D01*
X12995001Y-11789571D01*
X13004525Y-11770524D01*
X13014049Y-11761000D01*
X13033096Y-11751476D01*
X13185477Y-11932428D02*
X13195001Y-11941952D01*
X13185477Y-11951476D01*
X13175954Y-11941952D01*
X13185477Y-11932428D01*
X13185477Y-11951476D01*
X13318811Y-11751476D02*
X13337858Y-11751476D01*
X13356906Y-11761000D01*
X13366430Y-11770524D01*
X13375954Y-11789571D01*
X13385477Y-11827667D01*
X13385477Y-11875286D01*
X13375954Y-11913381D01*
X13366430Y-11932428D01*
X13356906Y-11941952D01*
X13337858Y-11951476D01*
X13318811Y-11951476D01*
X13299763Y-11941952D01*
X13290239Y-11932428D01*
X13280716Y-11913381D01*
X13271192Y-11875286D01*
X13271192Y-11827667D01*
X13280716Y-11789571D01*
X13290239Y-11770524D01*
X13299763Y-11761000D01*
X13318811Y-11751476D01*
X13452144Y-11751476D02*
X13575954Y-11751476D01*
X13509287Y-11827667D01*
X13537858Y-11827667D01*
X13556906Y-11837190D01*
X13566430Y-11846714D01*
X13575954Y-11865762D01*
X13575954Y-11913381D01*
X13566430Y-11932428D01*
X13556906Y-11941952D01*
X13537858Y-11951476D01*
X13480716Y-11951476D01*
X13461668Y-11941952D01*
X13452144Y-11932428D01*
X13671192Y-11951476D02*
X13709287Y-11951476D01*
X13728335Y-11941952D01*
X13737858Y-11932428D01*
X13756906Y-11903857D01*
X13766430Y-11865762D01*
X13766430Y-11789571D01*
X13756906Y-11770524D01*
X13747382Y-11761000D01*
X13728335Y-11751476D01*
X13690239Y-11751476D01*
X13671192Y-11761000D01*
X13661668Y-11770524D01*
X13652144Y-11789571D01*
X13652144Y-11837190D01*
X13661668Y-11856238D01*
X13671192Y-11865762D01*
X13690239Y-11875286D01*
X13728335Y-11875286D01*
X13747382Y-11865762D01*
X13756906Y-11856238D01*
X13766430Y-11837190D01*
X13937858Y-11818143D02*
X13937858Y-11951476D01*
X13890239Y-11741952D02*
X13842620Y-11884809D01*
X13966430Y-11884809D01*
X14033096Y-11751476D02*
X14033096Y-11789571D01*
X14109287Y-11751476D02*
X14109287Y-11789571D01*
X14404525Y-12027667D02*
X14395001Y-12018143D01*
X14375954Y-11989571D01*
X14366430Y-11970524D01*
X14356906Y-11941952D01*
X14347382Y-11894333D01*
X14347382Y-11856238D01*
X14356906Y-11808619D01*
X14366430Y-11780048D01*
X14375954Y-11761000D01*
X14395001Y-11732428D01*
X14404525Y-11722905D01*
X14585477Y-11951476D02*
X14471192Y-11951476D01*
X14528335Y-11951476D02*
X14528335Y-11751476D01*
X14509287Y-11780048D01*
X14490239Y-11799095D01*
X14471192Y-11808619D01*
X14709287Y-11751476D02*
X14728335Y-11751476D01*
X14747382Y-11761000D01*
X14756906Y-11770524D01*
X14766430Y-11789571D01*
X14775954Y-11827667D01*
X14775954Y-11875286D01*
X14766430Y-11913381D01*
X14756906Y-11932428D01*
X14747382Y-11941952D01*
X14728335Y-11951476D01*
X14709287Y-11951476D01*
X14690239Y-11941952D01*
X14680716Y-11932428D01*
X14671192Y-11913381D01*
X14661668Y-11875286D01*
X14661668Y-11827667D01*
X14671192Y-11789571D01*
X14680716Y-11770524D01*
X14690239Y-11761000D01*
X14709287Y-11751476D01*
X14871192Y-11951476D02*
X14909287Y-11951476D01*
X14928335Y-11941952D01*
X14937858Y-11932428D01*
X14956906Y-11903857D01*
X14966430Y-11865762D01*
X14966430Y-11789571D01*
X14956906Y-11770524D01*
X14947382Y-11761000D01*
X14928335Y-11751476D01*
X14890239Y-11751476D01*
X14871192Y-11761000D01*
X14861668Y-11770524D01*
X14852144Y-11789571D01*
X14852144Y-11837190D01*
X14861668Y-11856238D01*
X14871192Y-11865762D01*
X14890239Y-11875286D01*
X14928335Y-11875286D01*
X14947382Y-11865762D01*
X14956906Y-11856238D01*
X14966430Y-11837190D01*
X15204525Y-11951476D02*
X15204525Y-11751476D01*
X15290239Y-11951476D02*
X15290239Y-11846714D01*
X15280716Y-11827667D01*
X15261668Y-11818143D01*
X15233096Y-11818143D01*
X15214049Y-11827667D01*
X15204525Y-11837190D01*
X15414049Y-11951476D02*
X15395001Y-11941952D01*
X15385477Y-11932428D01*
X15375954Y-11913381D01*
X15375954Y-11856238D01*
X15385477Y-11837190D01*
X15395001Y-11827667D01*
X15414049Y-11818143D01*
X15442620Y-11818143D01*
X15461668Y-11827667D01*
X15471192Y-11837190D01*
X15480716Y-11856238D01*
X15480716Y-11913381D01*
X15471192Y-11932428D01*
X15461668Y-11941952D01*
X15442620Y-11951476D01*
X15414049Y-11951476D01*
X15595001Y-11951476D02*
X15575954Y-11941952D01*
X15566430Y-11922905D01*
X15566430Y-11751476D01*
X15747382Y-11941952D02*
X15728335Y-11951476D01*
X15690239Y-11951476D01*
X15671192Y-11941952D01*
X15661668Y-11922905D01*
X15661668Y-11846714D01*
X15671192Y-11827667D01*
X15690239Y-11818143D01*
X15728335Y-11818143D01*
X15747382Y-11827667D01*
X15756906Y-11846714D01*
X15756906Y-11865762D01*
X15661668Y-11884809D01*
X15833096Y-11941952D02*
X15852144Y-11951476D01*
X15890239Y-11951476D01*
X15909287Y-11941952D01*
X15918811Y-11922905D01*
X15918811Y-11913381D01*
X15909287Y-11894333D01*
X15890239Y-11884809D01*
X15861668Y-11884809D01*
X15842620Y-11875286D01*
X15833096Y-11856238D01*
X15833096Y-11846714D01*
X15842620Y-11827667D01*
X15861668Y-11818143D01*
X15890239Y-11818143D01*
X15909287Y-11827667D01*
X15985477Y-12027667D02*
X15995001Y-12018143D01*
X16014049Y-11989571D01*
X16023573Y-11970524D01*
X16033096Y-11941952D01*
X16042620Y-11894333D01*
X16042620Y-11856238D01*
X16033096Y-11808619D01*
X16023573Y-11780048D01*
X16014049Y-11761000D01*
X15995001Y-11732428D01*
X15985477Y-11722905D01*
D17*
X10702620Y-12060000D02*
X10832620Y-12190000D01*
X10832620Y-12060000D02*
X10702620Y-12190000D01*
X10832620Y-12125000D02*
G75*
G03*
X10832620Y-12125000I-65000J0D01*
G01*
D11*
X11195001Y-12215476D02*
X11080716Y-12215476D01*
X11137858Y-12215476D02*
X11137858Y-12015476D01*
X11118811Y-12044048D01*
X11099763Y-12063095D01*
X11080716Y-12072619D01*
X11280716Y-12196428D02*
X11290239Y-12205952D01*
X11280716Y-12215476D01*
X11271192Y-12205952D01*
X11280716Y-12196428D01*
X11280716Y-12215476D01*
X11356906Y-12015476D02*
X11480716Y-12015476D01*
X11414049Y-12091667D01*
X11442620Y-12091667D01*
X11461668Y-12101190D01*
X11471192Y-12110714D01*
X11480716Y-12129762D01*
X11480716Y-12177381D01*
X11471192Y-12196428D01*
X11461668Y-12205952D01*
X11442620Y-12215476D01*
X11385477Y-12215476D01*
X11366430Y-12205952D01*
X11356906Y-12196428D01*
X11604525Y-12015476D02*
X11623573Y-12015476D01*
X11642620Y-12025000D01*
X11652144Y-12034524D01*
X11661668Y-12053571D01*
X11671192Y-12091667D01*
X11671192Y-12139286D01*
X11661668Y-12177381D01*
X11652144Y-12196428D01*
X11642620Y-12205952D01*
X11623573Y-12215476D01*
X11604525Y-12215476D01*
X11585477Y-12205952D01*
X11575954Y-12196428D01*
X11566430Y-12177381D01*
X11556906Y-12139286D01*
X11556906Y-12091667D01*
X11566430Y-12053571D01*
X11575954Y-12034524D01*
X11585477Y-12025000D01*
X11604525Y-12015476D01*
X11795001Y-12015476D02*
X11814049Y-12015476D01*
X11833096Y-12025000D01*
X11842620Y-12034524D01*
X11852144Y-12053571D01*
X11861668Y-12091667D01*
X11861668Y-12139286D01*
X11852144Y-12177381D01*
X11842620Y-12196428D01*
X11833096Y-12205952D01*
X11814049Y-12215476D01*
X11795001Y-12215476D01*
X11775954Y-12205952D01*
X11766430Y-12196428D01*
X11756906Y-12177381D01*
X11747382Y-12139286D01*
X11747382Y-12091667D01*
X11756906Y-12053571D01*
X11766430Y-12034524D01*
X11775954Y-12025000D01*
X11795001Y-12015476D01*
X11947382Y-12215476D02*
X11947382Y-12082143D01*
X11947382Y-12101190D02*
X11956906Y-12091667D01*
X11975954Y-12082143D01*
X12004525Y-12082143D01*
X12023573Y-12091667D01*
X12033096Y-12110714D01*
X12033096Y-12215476D01*
X12033096Y-12110714D02*
X12042620Y-12091667D01*
X12061668Y-12082143D01*
X12090239Y-12082143D01*
X12109287Y-12091667D01*
X12118811Y-12110714D01*
X12118811Y-12215476D01*
X12214049Y-12215476D02*
X12214049Y-12082143D01*
X12214049Y-12101190D02*
X12223573Y-12091667D01*
X12242620Y-12082143D01*
X12271192Y-12082143D01*
X12290239Y-12091667D01*
X12299763Y-12110714D01*
X12299763Y-12215476D01*
X12299763Y-12110714D02*
X12309287Y-12091667D01*
X12328335Y-12082143D01*
X12356906Y-12082143D01*
X12375954Y-12091667D01*
X12385477Y-12110714D01*
X12385477Y-12215476D01*
X12775954Y-12005952D02*
X12604525Y-12263095D01*
X13033096Y-12015476D02*
X13052144Y-12015476D01*
X13071192Y-12025000D01*
X13080716Y-12034524D01*
X13090239Y-12053571D01*
X13099763Y-12091667D01*
X13099763Y-12139286D01*
X13090239Y-12177381D01*
X13080716Y-12196428D01*
X13071192Y-12205952D01*
X13052144Y-12215476D01*
X13033096Y-12215476D01*
X13014049Y-12205952D01*
X13004525Y-12196428D01*
X12995001Y-12177381D01*
X12985477Y-12139286D01*
X12985477Y-12091667D01*
X12995001Y-12053571D01*
X13004525Y-12034524D01*
X13014049Y-12025000D01*
X13033096Y-12015476D01*
X13185477Y-12196428D02*
X13195001Y-12205952D01*
X13185477Y-12215476D01*
X13175954Y-12205952D01*
X13185477Y-12196428D01*
X13185477Y-12215476D01*
X13318811Y-12015476D02*
X13337858Y-12015476D01*
X13356906Y-12025000D01*
X13366430Y-12034524D01*
X13375954Y-12053571D01*
X13385477Y-12091667D01*
X13385477Y-12139286D01*
X13375954Y-12177381D01*
X13366430Y-12196428D01*
X13356906Y-12205952D01*
X13337858Y-12215476D01*
X13318811Y-12215476D01*
X13299763Y-12205952D01*
X13290239Y-12196428D01*
X13280716Y-12177381D01*
X13271192Y-12139286D01*
X13271192Y-12091667D01*
X13280716Y-12053571D01*
X13290239Y-12034524D01*
X13299763Y-12025000D01*
X13318811Y-12015476D01*
X13566430Y-12015476D02*
X13471192Y-12015476D01*
X13461668Y-12110714D01*
X13471192Y-12101190D01*
X13490239Y-12091667D01*
X13537858Y-12091667D01*
X13556906Y-12101190D01*
X13566430Y-12110714D01*
X13575954Y-12129762D01*
X13575954Y-12177381D01*
X13566430Y-12196428D01*
X13556906Y-12205952D01*
X13537858Y-12215476D01*
X13490239Y-12215476D01*
X13471192Y-12205952D01*
X13461668Y-12196428D01*
X13766430Y-12215476D02*
X13652144Y-12215476D01*
X13709287Y-12215476D02*
X13709287Y-12015476D01*
X13690239Y-12044048D01*
X13671192Y-12063095D01*
X13652144Y-12072619D01*
X13842620Y-12034524D02*
X13852144Y-12025000D01*
X13871192Y-12015476D01*
X13918811Y-12015476D01*
X13937858Y-12025000D01*
X13947382Y-12034524D01*
X13956906Y-12053571D01*
X13956906Y-12072619D01*
X13947382Y-12101190D01*
X13833096Y-12215476D01*
X13956906Y-12215476D01*
X14033096Y-12015476D02*
X14033096Y-12053571D01*
X14109287Y-12015476D02*
X14109287Y-12053571D01*
X14404525Y-12291667D02*
X14395001Y-12282143D01*
X14375954Y-12253571D01*
X14366430Y-12234524D01*
X14356906Y-12205952D01*
X14347382Y-12158333D01*
X14347382Y-12120238D01*
X14356906Y-12072619D01*
X14366430Y-12044048D01*
X14375954Y-12025000D01*
X14395001Y-11996428D01*
X14404525Y-11986905D01*
X14566430Y-12082143D02*
X14566430Y-12215476D01*
X14518811Y-12005952D02*
X14471192Y-12148809D01*
X14595001Y-12148809D01*
X14823573Y-12215476D02*
X14823573Y-12015476D01*
X14909287Y-12215476D02*
X14909287Y-12110714D01*
X14899763Y-12091667D01*
X14880716Y-12082143D01*
X14852144Y-12082143D01*
X14833096Y-12091667D01*
X14823573Y-12101190D01*
X15033096Y-12215476D02*
X15014049Y-12205952D01*
X15004525Y-12196428D01*
X14995001Y-12177381D01*
X14995001Y-12120238D01*
X15004525Y-12101190D01*
X15014049Y-12091667D01*
X15033096Y-12082143D01*
X15061668Y-12082143D01*
X15080716Y-12091667D01*
X15090239Y-12101190D01*
X15099763Y-12120238D01*
X15099763Y-12177381D01*
X15090239Y-12196428D01*
X15080716Y-12205952D01*
X15061668Y-12215476D01*
X15033096Y-12215476D01*
X15214049Y-12215476D02*
X15195001Y-12205952D01*
X15185477Y-12186905D01*
X15185477Y-12015476D01*
X15366430Y-12205952D02*
X15347382Y-12215476D01*
X15309287Y-12215476D01*
X15290239Y-12205952D01*
X15280716Y-12186905D01*
X15280716Y-12110714D01*
X15290239Y-12091667D01*
X15309287Y-12082143D01*
X15347382Y-12082143D01*
X15366430Y-12091667D01*
X15375954Y-12110714D01*
X15375954Y-12129762D01*
X15280716Y-12148809D01*
X15452144Y-12205952D02*
X15471192Y-12215476D01*
X15509287Y-12215476D01*
X15528335Y-12205952D01*
X15537858Y-12186905D01*
X15537858Y-12177381D01*
X15528335Y-12158333D01*
X15509287Y-12148809D01*
X15480716Y-12148809D01*
X15461668Y-12139286D01*
X15452144Y-12120238D01*
X15452144Y-12110714D01*
X15461668Y-12091667D01*
X15480716Y-12082143D01*
X15509287Y-12082143D01*
X15528335Y-12091667D01*
X15604525Y-12291667D02*
X15614049Y-12282143D01*
X15633096Y-12253571D01*
X15642620Y-12234524D01*
X15652144Y-12205952D01*
X15661668Y-12158333D01*
X15661668Y-12120238D01*
X15652144Y-12072619D01*
X15642620Y-12044048D01*
X15633096Y-12025000D01*
X15614049Y-11996428D01*
X15604525Y-11986905D01*
X10632620Y-12289000D02*
X10832620Y-12489000D01*
X10832620Y-12289000D02*
X10632620Y-12489000D01*
X10732620Y-12289000D02*
X10732620Y-12489000D01*
X10632620Y-12389000D02*
X10832620Y-12389000D01*
X11071192Y-12279476D02*
X11195001Y-12279476D01*
X11128335Y-12355667D01*
X11156906Y-12355667D01*
X11175954Y-12365190D01*
X11185477Y-12374714D01*
X11195001Y-12393762D01*
X11195001Y-12441381D01*
X11185477Y-12460428D01*
X11175954Y-12469952D01*
X11156906Y-12479476D01*
X11099763Y-12479476D01*
X11080716Y-12469952D01*
X11071192Y-12460428D01*
X11280716Y-12460428D02*
X11290239Y-12469952D01*
X11280716Y-12479476D01*
X11271192Y-12469952D01*
X11280716Y-12460428D01*
X11280716Y-12479476D01*
X11366430Y-12298524D02*
X11375954Y-12289000D01*
X11395001Y-12279476D01*
X11442620Y-12279476D01*
X11461668Y-12289000D01*
X11471192Y-12298524D01*
X11480716Y-12317571D01*
X11480716Y-12336619D01*
X11471192Y-12365190D01*
X11356906Y-12479476D01*
X11480716Y-12479476D01*
X11604525Y-12279476D02*
X11623573Y-12279476D01*
X11642620Y-12289000D01*
X11652144Y-12298524D01*
X11661668Y-12317571D01*
X11671192Y-12355667D01*
X11671192Y-12403286D01*
X11661668Y-12441381D01*
X11652144Y-12460428D01*
X11642620Y-12469952D01*
X11623573Y-12479476D01*
X11604525Y-12479476D01*
X11585477Y-12469952D01*
X11575954Y-12460428D01*
X11566430Y-12441381D01*
X11556906Y-12403286D01*
X11556906Y-12355667D01*
X11566430Y-12317571D01*
X11575954Y-12298524D01*
X11585477Y-12289000D01*
X11604525Y-12279476D01*
X11795001Y-12279476D02*
X11814049Y-12279476D01*
X11833096Y-12289000D01*
X11842620Y-12298524D01*
X11852144Y-12317571D01*
X11861668Y-12355667D01*
X11861668Y-12403286D01*
X11852144Y-12441381D01*
X11842620Y-12460428D01*
X11833096Y-12469952D01*
X11814049Y-12479476D01*
X11795001Y-12479476D01*
X11775954Y-12469952D01*
X11766430Y-12460428D01*
X11756906Y-12441381D01*
X11747382Y-12403286D01*
X11747382Y-12355667D01*
X11756906Y-12317571D01*
X11766430Y-12298524D01*
X11775954Y-12289000D01*
X11795001Y-12279476D01*
X11947382Y-12479476D02*
X11947382Y-12346143D01*
X11947382Y-12365190D02*
X11956906Y-12355667D01*
X11975954Y-12346143D01*
X12004525Y-12346143D01*
X12023573Y-12355667D01*
X12033096Y-12374714D01*
X12033096Y-12479476D01*
X12033096Y-12374714D02*
X12042620Y-12355667D01*
X12061668Y-12346143D01*
X12090239Y-12346143D01*
X12109287Y-12355667D01*
X12118811Y-12374714D01*
X12118811Y-12479476D01*
X12214049Y-12479476D02*
X12214049Y-12346143D01*
X12214049Y-12365190D02*
X12223573Y-12355667D01*
X12242620Y-12346143D01*
X12271192Y-12346143D01*
X12290239Y-12355667D01*
X12299763Y-12374714D01*
X12299763Y-12479476D01*
X12299763Y-12374714D02*
X12309287Y-12355667D01*
X12328335Y-12346143D01*
X12356906Y-12346143D01*
X12375954Y-12355667D01*
X12385477Y-12374714D01*
X12385477Y-12479476D01*
X12775954Y-12269952D02*
X12604525Y-12527095D01*
X13033096Y-12279476D02*
X13052144Y-12279476D01*
X13071192Y-12289000D01*
X13080716Y-12298524D01*
X13090239Y-12317571D01*
X13099763Y-12355667D01*
X13099763Y-12403286D01*
X13090239Y-12441381D01*
X13080716Y-12460428D01*
X13071192Y-12469952D01*
X13052144Y-12479476D01*
X13033096Y-12479476D01*
X13014049Y-12469952D01*
X13004525Y-12460428D01*
X12995001Y-12441381D01*
X12985477Y-12403286D01*
X12985477Y-12355667D01*
X12995001Y-12317571D01*
X13004525Y-12298524D01*
X13014049Y-12289000D01*
X13033096Y-12279476D01*
X13185477Y-12460428D02*
X13195001Y-12469952D01*
X13185477Y-12479476D01*
X13175954Y-12469952D01*
X13185477Y-12460428D01*
X13185477Y-12479476D01*
X13385477Y-12479476D02*
X13271192Y-12479476D01*
X13328335Y-12479476D02*
X13328335Y-12279476D01*
X13309287Y-12308048D01*
X13290239Y-12327095D01*
X13271192Y-12336619D01*
X13461668Y-12298524D02*
X13471192Y-12289000D01*
X13490239Y-12279476D01*
X13537858Y-12279476D01*
X13556906Y-12289000D01*
X13566430Y-12298524D01*
X13575954Y-12317571D01*
X13575954Y-12336619D01*
X13566430Y-12365190D01*
X13452144Y-12479476D01*
X13575954Y-12479476D01*
X13747382Y-12279476D02*
X13709287Y-12279476D01*
X13690239Y-12289000D01*
X13680716Y-12298524D01*
X13661668Y-12327095D01*
X13652144Y-12365190D01*
X13652144Y-12441381D01*
X13661668Y-12460428D01*
X13671192Y-12469952D01*
X13690239Y-12479476D01*
X13728335Y-12479476D01*
X13747382Y-12469952D01*
X13756906Y-12460428D01*
X13766430Y-12441381D01*
X13766430Y-12393762D01*
X13756906Y-12374714D01*
X13747382Y-12365190D01*
X13728335Y-12355667D01*
X13690239Y-12355667D01*
X13671192Y-12365190D01*
X13661668Y-12374714D01*
X13652144Y-12393762D01*
X13890239Y-12279476D02*
X13909287Y-12279476D01*
X13928335Y-12289000D01*
X13937858Y-12298524D01*
X13947382Y-12317571D01*
X13956906Y-12355667D01*
X13956906Y-12403286D01*
X13947382Y-12441381D01*
X13937858Y-12460428D01*
X13928335Y-12469952D01*
X13909287Y-12479476D01*
X13890239Y-12479476D01*
X13871192Y-12469952D01*
X13861668Y-12460428D01*
X13852144Y-12441381D01*
X13842620Y-12403286D01*
X13842620Y-12355667D01*
X13852144Y-12317571D01*
X13861668Y-12298524D01*
X13871192Y-12289000D01*
X13890239Y-12279476D01*
X14033096Y-12279476D02*
X14033096Y-12317571D01*
X14109287Y-12279476D02*
X14109287Y-12317571D01*
X14404525Y-12555667D02*
X14395001Y-12546143D01*
X14375954Y-12517571D01*
X14366430Y-12498524D01*
X14356906Y-12469952D01*
X14347382Y-12422333D01*
X14347382Y-12384238D01*
X14356906Y-12336619D01*
X14366430Y-12308048D01*
X14375954Y-12289000D01*
X14395001Y-12260428D01*
X14404525Y-12250905D01*
X14471192Y-12298524D02*
X14480716Y-12289000D01*
X14499763Y-12279476D01*
X14547382Y-12279476D01*
X14566430Y-12289000D01*
X14575954Y-12298524D01*
X14585477Y-12317571D01*
X14585477Y-12336619D01*
X14575954Y-12365190D01*
X14461668Y-12479476D01*
X14585477Y-12479476D01*
X14823573Y-12479476D02*
X14823573Y-12279476D01*
X14909287Y-12479476D02*
X14909287Y-12374714D01*
X14899763Y-12355667D01*
X14880716Y-12346143D01*
X14852144Y-12346143D01*
X14833096Y-12355667D01*
X14823573Y-12365190D01*
X15033096Y-12479476D02*
X15014049Y-12469952D01*
X15004525Y-12460428D01*
X14995001Y-12441381D01*
X14995001Y-12384238D01*
X15004525Y-12365190D01*
X15014049Y-12355667D01*
X15033096Y-12346143D01*
X15061668Y-12346143D01*
X15080716Y-12355667D01*
X15090239Y-12365190D01*
X15099763Y-12384238D01*
X15099763Y-12441381D01*
X15090239Y-12460428D01*
X15080716Y-12469952D01*
X15061668Y-12479476D01*
X15033096Y-12479476D01*
X15214049Y-12479476D02*
X15195001Y-12469952D01*
X15185477Y-12450905D01*
X15185477Y-12279476D01*
X15366430Y-12469952D02*
X15347382Y-12479476D01*
X15309287Y-12479476D01*
X15290239Y-12469952D01*
X15280716Y-12450905D01*
X15280716Y-12374714D01*
X15290239Y-12355667D01*
X15309287Y-12346143D01*
X15347382Y-12346143D01*
X15366430Y-12355667D01*
X15375954Y-12374714D01*
X15375954Y-12393762D01*
X15280716Y-12412809D01*
X15452144Y-12469952D02*
X15471192Y-12479476D01*
X15509287Y-12479476D01*
X15528335Y-12469952D01*
X15537858Y-12450905D01*
X15537858Y-12441381D01*
X15528335Y-12422333D01*
X15509287Y-12412809D01*
X15480716Y-12412809D01*
X15461668Y-12403286D01*
X15452144Y-12384238D01*
X15452144Y-12374714D01*
X15461668Y-12355667D01*
X15480716Y-12346143D01*
X15509287Y-12346143D01*
X15528335Y-12355667D01*
X15604525Y-12555667D02*
X15614049Y-12546143D01*
X15633096Y-12517571D01*
X15642620Y-12498524D01*
X15652144Y-12469952D01*
X15661668Y-12422333D01*
X15661668Y-12384238D01*
X15652144Y-12336619D01*
X15642620Y-12308048D01*
X15633096Y-12289000D01*
X15614049Y-12260428D01*
X15604525Y-12250905D01*
M02*
