M48
; DRILL file {KiCad (6.0.6)} date Fri Jun  2 12:55:41 2023
; FORMAT={-:-/ absolute / metric / decimal}
; #@! TF.CreationDate,2023-06-02T12:55:41+02:00
; #@! TF.GenerationSoftware,Kicad,Pcbnew,(6.0.6)
; #@! TF.FileFunction,Plated,1,2,PTH
FMAT,2
METRIC
; #@! TA.AperFunction,Plated,PTH,ViaDrill
T1C0.400
; #@! TA.AperFunction,Plated,PTH,ComponentDrill
T2C0.800
; #@! TA.AperFunction,Plated,PTH,ComponentDrill
T3C0.900
; #@! TA.AperFunction,Plated,PTH,ComponentDrill
T4C0.990
; #@! TA.AperFunction,Plated,PTH,ComponentDrill
T5C1.000
; #@! TA.AperFunction,Plated,PTH,ComponentDrill
T6C1.300
; #@! TA.AperFunction,Plated,PTH,ComponentDrill
T7C3.200
%
G90
G05
T1
X125.084Y-79.972
X136.666Y-77.26
X149.244Y-75.887
X152.561Y-72.366
X154.837Y-69.545
X156.417Y-84.59
X159.016Y-59.657
X162.632Y-64.86
X173.501Y-84.59
X176.857Y-72.366
X176.87Y-69.545
T2
X112.014Y-53.594
X112.014Y-61.214
X116.84Y-53.594
X116.84Y-61.214
X120.396Y-95.25
X123.444Y-64.262
X128.016Y-95.25
X131.064Y-64.262
X131.318Y-70.612
X131.318Y-78.232
T3
X121.666Y-78.999
X121.666Y-81.539
X121.92Y-71.125
X121.92Y-73.665
X121.92Y-87.381
X121.92Y-89.921
T4
X111.944Y-86.432
X111.944Y-90.932
X112.198Y-71.192
X112.198Y-75.692
T5
X131.021Y-56.559
X132.406Y-53.719
X133.791Y-56.559
X135.176Y-53.719
X136.561Y-56.559
X136.906Y-87.884
X136.906Y-90.424
X137.946Y-53.719
X138.938Y-67.046
X138.938Y-82.286
X139.331Y-56.559
X139.446Y-87.884
X139.446Y-90.424
X140.716Y-53.719
X141.478Y-67.046
X141.478Y-82.286
X141.986Y-87.884
X141.986Y-90.424
X142.101Y-56.559
X143.486Y-53.719
X144.018Y-67.046
X144.018Y-82.286
X144.526Y-87.884
X144.526Y-90.424
X144.871Y-56.559
X146.256Y-53.719
X146.558Y-67.046
X146.558Y-82.286
X147.066Y-87.884
X147.066Y-90.424
X147.641Y-56.559
X149.026Y-53.719
X149.098Y-67.046
X149.098Y-82.286
X149.606Y-87.884
X149.606Y-90.424
X150.411Y-56.559
X151.638Y-67.046
X151.638Y-82.286
X151.796Y-53.719
X152.146Y-87.884
X152.146Y-90.424
X153.181Y-56.559
X154.178Y-67.046
X154.178Y-82.286
X154.566Y-53.719
X154.686Y-87.884
X154.686Y-90.424
X155.951Y-56.559
X156.718Y-67.046
X156.718Y-82.286
X157.226Y-87.884
X157.226Y-90.424
X157.336Y-53.719
X158.721Y-56.559
X159.258Y-67.046
X159.258Y-82.286
X159.766Y-87.884
X159.766Y-90.424
X160.106Y-53.719
X161.491Y-56.559
X161.798Y-67.046
X161.798Y-82.286
X162.306Y-87.884
X162.306Y-90.424
X162.876Y-53.719
X164.261Y-56.559
X164.338Y-67.046
X164.338Y-82.286
X164.846Y-87.884
X164.846Y-90.424
X165.646Y-53.719
X166.878Y-67.046
X166.878Y-82.286
X167.031Y-56.559
X167.386Y-87.884
X167.386Y-90.424
X168.416Y-53.719
X169.418Y-67.046
X169.418Y-82.286
X169.801Y-56.559
X169.926Y-87.884
X169.926Y-90.424
X171.186Y-53.719
X171.958Y-67.046
X171.958Y-82.286
X172.466Y-87.884
X172.466Y-90.424
X172.571Y-56.559
X173.956Y-53.719
X174.498Y-67.046
X174.498Y-82.286
X175.006Y-87.884
X175.006Y-90.424
X175.341Y-56.559
X176.726Y-53.719
X177.546Y-87.884
X177.546Y-90.424
X178.111Y-56.559
X179.496Y-53.719
X180.881Y-56.559
X189.173Y-65.034
X189.173Y-67.574
X189.173Y-70.114
X189.173Y-72.654
X189.173Y-78.242
X189.173Y-80.782
X189.173Y-83.322
X189.173Y-85.862
T6
X114.434Y-85.172
X114.434Y-92.182
X114.688Y-69.932
X114.688Y-76.942
T7
X124.201Y-56.259
X187.701Y-56.259
T0
M30
